<svg xmlns="http://www.w3.org/2000/svg" viewBox="0 0 219.46 153.25"><defs><style>.cls-1{fill:#fee59a;}</style></defs><g id="Layer_2" data-name="Layer 2"><g id="Layer_2-2" data-name="Layer 2"><path class="cls-1" d="M1.08,1.8H2.55V8.86H7V10.2H1.08Z" transform="translate(-0.4 -1.1)"/><path class="cls-1" d="M7.92,8.38v0c0-1.36,1.07-2,2.61-2a5.19,5.19,0,0,1,1.71.27V6.42c0-.9-.55-1.38-1.57-1.38a4.37,4.37,0,0,0-1.81.4L8.47,4.3a5.45,5.45,0,0,1,2.39-.52,2.87,2.87,0,0,1,2.1.71,2.67,2.67,0,0,1,.68,2V10.2H12.23V9.41a2.62,2.62,0,0,1-2.07.92A2,2,0,0,1,7.92,8.38Zm4.34-.46V7.49a4.09,4.09,0,0,0-1.44-.25c-.93,0-1.49.39-1.49,1v0c0,.61.54,1,1.24,1C11.53,9.28,12.26,8.72,12.26,7.92Z" transform="translate(-0.4 -1.1)"/><path class="cls-1" d="M20.79,9.22v1H19.34V1.45h1.45V4.92A2.54,2.54,0,0,1,23,3.74,3,3,0,0,1,25.89,7v0A3,3,0,0,1,23,10.33,2.62,2.62,0,0,1,20.79,9.22Zm3.62-2.17V7A1.87,1.87,0,0,0,22.6,5a1.9,1.9,0,0,0-1.84,2v0a1.9,1.9,0,0,0,1.84,2A1.85,1.85,0,0,0,24.41,7.05Z" transform="translate(-0.4 -1.1)"/><path class="cls-1" d="M27,8.38v0c0-1.36,1.07-2,2.62-2a5.18,5.18,0,0,1,1.7.27V6.42c0-.9-.55-1.38-1.57-1.38a4.37,4.37,0,0,0-1.81.4L27.52,4.3a5.45,5.45,0,0,1,2.39-.52,2.85,2.85,0,0,1,2.1.71,2.63,2.63,0,0,1,.68,2V10.2H31.28V9.41a2.58,2.58,0,0,1-2.06.92A2,2,0,0,1,27,8.38Zm4.34-.46V7.49a4.09,4.09,0,0,0-1.44-.25c-.93,0-1.48.39-1.48,1v0c0,.61.54,1,1.23,1C30.58,9.28,31.31,8.72,31.31,7.92Z" transform="translate(-0.4 -1.1)"/><path class="cls-1" d="M34.44,3.87h1.45v1a2.28,2.28,0,0,1,2-1.1,2.17,2.17,0,0,1,2.25,2.42v4H38.67V6.6c0-1-.49-1.55-1.36-1.55a1.41,1.41,0,0,0-1.42,1.58V10.2H34.44Z" transform="translate(-0.4 -1.1)"/><path class="cls-1" d="M41.46,8.38v0c0-1.36,1.06-2,2.61-2a5.13,5.13,0,0,1,1.7.27V6.42c0-.9-.55-1.38-1.57-1.38a4.45,4.45,0,0,0-1.81.4L42,4.3a5.4,5.4,0,0,1,2.38-.52,2.85,2.85,0,0,1,2.1.71,2.64,2.64,0,0,1,.69,2V10.2H45.76V9.41a2.58,2.58,0,0,1-2.06.92A2,2,0,0,1,41.46,8.38Zm4.34-.46V7.49a4.14,4.14,0,0,0-1.44-.25c-.94,0-1.49.39-1.49,1v0c0,.61.54,1,1.24,1C45.07,9.28,45.8,8.72,45.8,7.92Z" transform="translate(-0.4 -1.1)"/><path class="cls-1" d="M48.92,3.87h1.45v1a2.3,2.3,0,0,1,2-1.1A2.17,2.17,0,0,1,54.6,6.16v4H53.15V6.6c0-1-.49-1.55-1.35-1.55a1.41,1.41,0,0,0-1.43,1.58V10.2H48.92Z" transform="translate(-0.4 -1.1)"/><path class="cls-1" d="M56,7.06V7a3.14,3.14,0,0,1,3.1-3.29c2,0,3,1.58,3,3.4,0,.13,0,.27,0,.41H57.46a1.78,1.78,0,0,0,1.83,1.61A2.31,2.31,0,0,0,61,8.4l.85.76A3.31,3.31,0,0,1,56,7.06Zm4.69-.47a1.64,1.64,0,0,0-1.61-1.67,1.72,1.72,0,0,0-1.64,1.67Z" transform="translate(-0.4 -1.1)"/><path class="cls-1" d="M67.22,7.06V7a3.13,3.13,0,0,1,3.09-3.29c2,0,3,1.58,3,3.4,0,.13,0,.27,0,.41H68.67a1.77,1.77,0,0,0,1.82,1.61,2.33,2.33,0,0,0,1.72-.76l.85.76a3.2,3.2,0,0,1-2.59,1.18A3.15,3.15,0,0,1,67.22,7.06Zm4.69-.47A1.65,1.65,0,0,0,70.3,4.92a1.71,1.71,0,0,0-1.64,1.67Z" transform="translate(-0.4 -1.1)"/><path class="cls-1" d="M74.3,9.37l.65-1A3.52,3.52,0,0,0,77,9.17c.62,0,1-.26,1-.68v0c0-.49-.67-.66-1.41-.89-.94-.26-2-.64-2-1.86v0a2,2,0,0,1,2.25-1.93,4.41,4.41,0,0,1,2.33.72l-.58,1a3.66,3.66,0,0,0-1.78-.6c-.57,0-.89.26-.89.63v0c0,.47.68.66,1.43.9.92.29,2,.71,2,1.85v0c0,1.33-1,2-2.35,2A4.39,4.39,0,0,1,74.3,9.37Z" transform="translate(-0.4 -1.1)"/><path class="cls-1" d="M81,8.45V5.12h-.8V3.87H81V2.13h1.46V3.87h1.7V5.12h-1.7v3.1c0,.57.28.79.78.79a1.94,1.94,0,0,0,.89-.21V10a2.41,2.41,0,0,1-1.3.33A1.63,1.63,0,0,1,81,8.45Z" transform="translate(-0.4 -1.1)"/><path class="cls-1" d="M89.52,7.9v-4H91v3.6c0,1,.5,1.53,1.36,1.53a1.4,1.4,0,0,0,1.43-1.56V3.87h1.46V10.2H93.76v-1a2.28,2.28,0,0,1-2,1.11A2.18,2.18,0,0,1,89.52,7.9Z" transform="translate(-0.4 -1.1)"/><path class="cls-1" d="M97,3.87h1.46v1a2.27,2.27,0,0,1,2-1.1,2.17,2.17,0,0,1,2.26,2.42v4h-1.45V6.6c0-1-.49-1.55-1.36-1.55a1.41,1.41,0,0,0-1.42,1.58V10.2H97Z" transform="translate(-0.4 -1.1)"/><path class="cls-1" d="M107.92,9.37l.64-1a3.57,3.57,0,0,0,2.08.78c.62,0,1-.26,1-.68v0c0-.49-.67-.66-1.41-.89-.94-.26-2-.64-2-1.86v0a2,2,0,0,1,2.25-1.93,4.43,4.43,0,0,1,2.33.72l-.58,1a3.69,3.69,0,0,0-1.78-.6c-.57,0-.89.26-.89.63v0c0,.47.68.66,1.43.9.92.29,2,.71,2,1.85v0c0,1.33-1,2-2.35,2A4.39,4.39,0,0,1,107.92,9.37Z" transform="translate(-0.4 -1.1)"/><path class="cls-1" d="M114.62,8.45V5.12h-.8V3.87h.8V2.13h1.45V3.87h1.71V5.12h-1.71v3.1a.69.69,0,0,0,.78.79,2,2,0,0,0,.9-.21V10a2.43,2.43,0,0,1-1.3.33A1.63,1.63,0,0,1,114.62,8.45Z" transform="translate(-0.4 -1.1)"/><path class="cls-1" d="M119.18,7.9v-4h1.45v3.6c0,1,.5,1.53,1.36,1.53a1.4,1.4,0,0,0,1.43-1.56V3.87h1.46V10.2h-1.46v-1a2.28,2.28,0,0,1-2,1.11A2.18,2.18,0,0,1,119.18,7.9Z" transform="translate(-0.4 -1.1)"/><path class="cls-1" d="M126.37,7.05V7a3,3,0,0,1,2.94-3.28,2.6,2.6,0,0,1,2.16,1.11V1.45h1.45V10.2h-1.45V9.14a2.54,2.54,0,0,1-2.16,1.19A3,3,0,0,1,126.37,7.05Zm5.12,0V7a1.89,1.89,0,0,0-1.83-2,1.85,1.85,0,0,0-1.82,2v0a1.87,1.87,0,0,0,1.82,2A1.9,1.9,0,0,0,131.49,7.05Z" transform="translate(-0.4 -1.1)"/><path class="cls-1" d="M134.77,1.52h1.56V2.9h-1.56Zm.06,2.35h1.45V10.2h-1.45Z" transform="translate(-0.4 -1.1)"/><path class="cls-1" d="M137.83,7.07v0a3.31,3.31,0,0,1,3.38-3.31A3.27,3.27,0,0,1,144.58,7v0a3.38,3.38,0,0,1-6.75,0Zm5.3,0v0a2,2,0,0,0-1.94-2,1.9,1.9,0,0,0-1.91,2v0a2,2,0,0,0,1.93,2A1.9,1.9,0,0,0,143.13,7.07Z" transform="translate(-0.4 -1.1)"/><path class="cls-1" d="M149.67,7.07v0A3.27,3.27,0,0,1,153,3.74a3.19,3.19,0,0,1,2.53,1.09l-.91,1A2.11,2.11,0,0,0,153,5a1.91,1.91,0,0,0-1.84,2v0a1.92,1.92,0,0,0,1.9,2,2.2,2.2,0,0,0,1.64-.78l.88.87a3.33,3.33,0,0,1-5.87-2.09Z" transform="translate(-0.4 -1.1)"/><path class="cls-1" d="M156.34,7.06V7a3.14,3.14,0,0,1,3.1-3.29c2,0,3,1.58,3,3.4,0,.13,0,.27,0,.41H157.8a1.76,1.76,0,0,0,1.82,1.61,2.29,2.29,0,0,0,1.71-.76l.86.76a3.2,3.2,0,0,1-2.59,1.18A3.16,3.16,0,0,1,156.34,7.06ZM161,6.59a1.63,1.63,0,0,0-1.6-1.67,1.73,1.73,0,0,0-1.65,1.67Zm-.94-5.49,1.32.58-1.48,1.38h-1.09Z" transform="translate(-0.4 -1.1)"/><path class="cls-1" d="M163.52,8.38v0c0-1.36,1.07-2,2.62-2a5.18,5.18,0,0,1,1.7.27V6.42c0-.9-.55-1.38-1.57-1.38a4.37,4.37,0,0,0-1.81.4l-.39-1.14a5.45,5.45,0,0,1,2.39-.52,2.87,2.87,0,0,1,2.1.71,2.63,2.63,0,0,1,.68,2V10.2h-1.41V9.41a2.59,2.59,0,0,1-2.07.92A2,2,0,0,1,163.52,8.38Zm4.34-.46V7.49a4.09,4.09,0,0,0-1.44-.25c-.93,0-1.48.39-1.48,1v0c0,.61.54,1,1.23,1C167.13,9.28,167.86,8.72,167.86,7.92Z" transform="translate(-0.4 -1.1)"/><path class="cls-1" d="M171.22,8.45V5.12h-.8V3.87h.8V2.13h1.46V3.87h1.7V5.12h-1.7v3.1c0,.57.28.79.78.79a2,2,0,0,0,.9-.21V10a2.47,2.47,0,0,1-1.31.33A1.63,1.63,0,0,1,171.22,8.45Z" transform="translate(-0.4 -1.1)"/><path class="cls-1" d="M175.88,1.52h1.56V2.9h-1.56Zm.06,2.35h1.45V10.2h-1.45Z" transform="translate(-0.4 -1.1)"/><path class="cls-1" d="M179.61,5.12h-.8V3.9h.8V3.44a2.11,2.11,0,0,1,.52-1.56,1.89,1.89,0,0,1,1.43-.51,4,4,0,0,1,1.17.17V2.76a2.71,2.71,0,0,0-.85-.15c-.55,0-.84.3-.84,1v.35h1.68v1.2h-1.66V10.2h-1.45Z" transform="translate(-0.4 -1.1)"/><path class="cls-1" d="M191.72,3.87h1.45v1a2.51,2.51,0,0,1,2.16-1.18A3,3,0,0,1,198.26,7v0a3,3,0,0,1-2.93,3.28,2.59,2.59,0,0,1-2.16-1.11v2.9h-1.45Zm5.07,3.18V7A1.87,1.87,0,0,0,195,5a1.9,1.9,0,0,0-1.85,2v0a1.9,1.9,0,0,0,1.85,2A1.85,1.85,0,0,0,196.79,7.05Z" transform="translate(-0.4 -1.1)"/><path class="cls-1" d="M199.85,1.45h1.45V10.2h-1.45Z" transform="translate(-0.4 -1.1)"/><path class="cls-1" d="M202.85,7.06V7A3.14,3.14,0,0,1,206,3.74c2,0,3,1.58,3,3.4,0,.13,0,.27,0,.41H204.3a1.78,1.78,0,0,0,1.83,1.61,2.31,2.31,0,0,0,1.71-.76l.85.76a3.2,3.2,0,0,1-2.59,1.18A3.16,3.16,0,0,1,202.85,7.06Zm4.69-.47a1.64,1.64,0,0,0-1.61-1.67,1.72,1.72,0,0,0-1.64,1.67Z" transform="translate(-0.4 -1.1)"/><path class="cls-1" d="M210.47,1.52H212V2.9h-1.56Zm.06,2.35H212V10.2h-1.45Z" transform="translate(-0.4 -1.1)"/><path class="cls-1" d="M213.88,3.87h1.45v1a2.3,2.3,0,0,1,2-1.1,2.17,2.17,0,0,1,2.25,2.42v4h-1.45V6.6c0-1-.49-1.55-1.35-1.55a1.41,1.41,0,0,0-1.43,1.58V10.2h-1.45Z" transform="translate(-0.4 -1.1)"/><path class="cls-1" d="M.4,23.77l.64-1a3.57,3.57,0,0,0,2.08.78c.62,0,1-.26,1-.68v0c0-.49-.67-.66-1.41-.89-.94-.26-2-.64-2-1.85v0A2,2,0,0,1,3,18.16a4.43,4.43,0,0,1,2.33.72l-.58,1a3.69,3.69,0,0,0-1.78-.6c-.57,0-.89.27-.89.63v0c0,.47.68.66,1.43.9.92.29,2,.71,2,1.85v0c0,1.33-1,2-2.35,2A4.39,4.39,0,0,1,.4,23.77Z" transform="translate(-0.4 -1.1)"/><path class="cls-1" d="M6.58,21.46v0a3.13,3.13,0,0,1,3.09-3.29c2,0,3,1.58,3,3.4,0,.13,0,.27,0,.41H8a1.76,1.76,0,0,0,1.82,1.61,2.29,2.29,0,0,0,1.71-.76l.86.76a3.2,3.2,0,0,1-2.59,1.18A3.15,3.15,0,0,1,6.58,21.46ZM11.26,21a1.63,1.63,0,0,0-1.6-1.67A1.73,1.73,0,0,0,8,21Z" transform="translate(-0.4 -1.1)"/><path class="cls-1" d="M14.17,18.27h1.45V19.7a2.25,2.25,0,0,1,2.25-1.55v1.53h-.09c-1.27,0-2.16.83-2.16,2.51V24.6H14.17Z" transform="translate(-0.4 -1.1)"/><path class="cls-1" d="M18.53,18.27h1.56l1.7,4.65,1.72-4.65H25l-2.59,6.38H21.13Z" transform="translate(-0.4 -1.1)"/><path class="cls-1" d="M26.29,15.92h1.56V17.3H26.29Zm.06,2.35H27.8V24.6H26.35Z" transform="translate(-0.4 -1.1)"/><path class="cls-1" d="M29.35,21.47v0a3.27,3.27,0,0,1,3.3-3.31,3.19,3.19,0,0,1,2.53,1.09l-.91,1a2.12,2.12,0,0,0-1.63-.79,1.91,1.91,0,0,0-1.84,2v0a1.92,1.92,0,0,0,1.9,2,2.22,2.22,0,0,0,1.64-.78l.88.87a3.33,3.33,0,0,1-5.87-2.09Z" transform="translate(-0.4 -1.1)"/><path class="cls-1" d="M36,21.46v0a3.14,3.14,0,0,1,3.1-3.29c2,0,3,1.58,3,3.4,0,.13,0,.27,0,.41H37.47a1.78,1.78,0,0,0,1.83,1.61A2.29,2.29,0,0,0,41,22.8l.85.76A3.31,3.31,0,0,1,36,21.46ZM40.71,21a1.63,1.63,0,0,0-1.6-1.67A1.72,1.72,0,0,0,37.46,21Z" transform="translate(-0.4 -1.1)"/><path class="cls-1" d="M49.41,23.62v1H48V15.85h1.45v3.47a2.54,2.54,0,0,1,2.16-1.18,3,3,0,0,1,2.94,3.28v0a3,3,0,0,1-2.94,3.28A2.57,2.57,0,0,1,49.41,23.62ZM53,21.45v0a1.87,1.87,0,0,0-1.81-2,1.91,1.91,0,0,0-1.85,2v0a1.91,1.91,0,0,0,1.85,2A1.85,1.85,0,0,0,53,21.45Z" transform="translate(-0.4 -1.1)"/><path class="cls-1" d="M55.59,22.78v0c0-1.36,1.07-2,2.62-2a5.18,5.18,0,0,1,1.7.27v-.16c0-.9-.55-1.38-1.57-1.38a4.37,4.37,0,0,0-1.81.4l-.39-1.14a5.45,5.45,0,0,1,2.39-.52,2.87,2.87,0,0,1,2.1.71,2.63,2.63,0,0,1,.68,2V24.6H59.9v-.79a2.59,2.59,0,0,1-2.07.92A2,2,0,0,1,55.59,22.78Zm4.34-.46v-.43a4.09,4.09,0,0,0-1.44-.25c-.93,0-1.48.39-1.48,1.05v0c0,.61.54,1,1.23,1C59.2,23.68,59.93,23.12,59.93,22.32Z" transform="translate(-0.4 -1.1)"/><path class="cls-1" d="M62.54,23.77l.65-1a3.52,3.52,0,0,0,2.07.78c.62,0,1-.26,1-.68v0c0-.49-.67-.66-1.41-.89-.94-.26-2-.64-2-1.85v0a2,2,0,0,1,2.26-1.93,4.4,4.4,0,0,1,2.32.72l-.57,1a3.72,3.72,0,0,0-1.79-.6c-.56,0-.89.27-.89.63v0c0,.47.69.66,1.43.9.92.29,2,.71,2,1.85v0c0,1.33-1,2-2.35,2A4.42,4.42,0,0,1,62.54,23.77Z" transform="translate(-0.4 -1.1)"/><path class="cls-1" d="M68.72,21.46v0a3.13,3.13,0,0,1,3.09-3.29c2,0,3,1.58,3,3.4,0,.13,0,.27,0,.41H70.17A1.77,1.77,0,0,0,72,23.56a2.33,2.33,0,0,0,1.72-.76l.85.76A3.2,3.2,0,0,1,72,24.74,3.15,3.15,0,0,1,68.72,21.46ZM73.41,21a1.65,1.65,0,0,0-1.61-1.67A1.71,1.71,0,0,0,70.16,21Zm-1-5.49,1.32.58L72.3,17.46H71.21Z" transform="translate(-0.4 -1.1)"/><path class="cls-1" d="M80.23,22.78v0c0-1.36,1.07-2,2.62-2a5.13,5.13,0,0,1,1.7.27v-.16c0-.9-.55-1.38-1.57-1.38a4.37,4.37,0,0,0-1.81.4l-.39-1.14a5.45,5.45,0,0,1,2.39-.52,2.85,2.85,0,0,1,2.1.71,2.63,2.63,0,0,1,.68,2V24.6H84.54v-.79a2.55,2.55,0,0,1-2.06.92A2,2,0,0,1,80.23,22.78Zm4.34-.46v-.43a4.08,4.08,0,0,0-1.43-.25c-.94,0-1.49.39-1.49,1.05v0c0,.61.54,1,1.23,1C83.84,23.68,84.57,23.12,84.57,22.32Z" transform="translate(-0.4 -1.1)"/><path class="cls-1" d="M92.2,16.21H96a3,3,0,0,1,2.19.74,1.85,1.85,0,0,1,.57,1.39v0a2,2,0,0,1-1.2,1.88,2,2,0,0,1,1.67,2v0c0,1.5-1.24,2.3-3.11,2.3H92.2Zm5,2.37c0-.66-.52-1.07-1.47-1.07H93.66v2.23h2c1,0,1.58-.37,1.58-1.14ZM96,21H93.66v2.3H96.1c1,0,1.62-.39,1.62-1.15v0C97.72,21.41,97.16,21,96,21Z" transform="translate(-0.4 -1.1)"/><path class="cls-1" d="M100.7,18.27h1.45V19.7a2.25,2.25,0,0,1,2.24-1.55v1.53h-.08c-1.27,0-2.16.83-2.16,2.51V24.6H100.7Z" transform="translate(-0.4 -1.1)"/><path class="cls-1" d="M105.09,21.47v0a3.31,3.31,0,0,1,3.38-3.31,3.27,3.27,0,0,1,3.37,3.28v0a3.38,3.38,0,0,1-6.75,0Zm5.3,0v0a2,2,0,0,0-1.94-2,1.9,1.9,0,0,0-1.91,2v0a2,2,0,0,0,1.93,2A1.9,1.9,0,0,0,110.39,21.47Z" transform="translate(-0.4 -1.1)"/><path class="cls-1" d="M113.32,18.27h1.46v1a2.24,2.24,0,0,1,1.93-1.09,2,2,0,0,1,1.89,1.11,2.56,2.56,0,0,1,2.14-1.11A2.12,2.12,0,0,1,123,20.56v4H121.5V21c0-1-.46-1.54-1.28-1.54s-1.35.55-1.35,1.57V24.6h-1.46V21c0-1-.48-1.53-1.28-1.53s-1.35.59-1.35,1.57V24.6h-1.46Z" transform="translate(-0.4 -1.1)"/><path class="cls-1" d="M124.38,21.47v0a3.31,3.31,0,0,1,3.38-3.31,3.28,3.28,0,0,1,3.37,3.28v0a3.31,3.31,0,0,1-3.4,3.29A3.26,3.26,0,0,1,124.38,21.47Zm5.3,0v0a2,2,0,0,0-2-2,1.89,1.89,0,0,0-1.9,2v0a2,2,0,0,0,1.93,2A1.9,1.9,0,0,0,129.68,21.47Z" transform="translate(-0.4 -1.1)"/><path class="cls-1" d="M132.61,18.27h1.45v1a2.28,2.28,0,0,1,2-1.1,2.17,2.17,0,0,1,2.25,2.42v4h-1.45V21c0-1-.49-1.54-1.35-1.54A1.41,1.41,0,0,0,134.06,21V24.6h-1.45Z" transform="translate(-0.4 -1.1)"/><path class="cls-1" d="M140.35,22.85V19.52h-.81V18.27h.81V16.53h1.45v1.74h1.7v1.25h-1.7v3.1a.69.69,0,0,0,.78.79,2,2,0,0,0,.9-.21v1.18a2.47,2.47,0,0,1-1.31.33A1.62,1.62,0,0,1,140.35,22.85Z" transform="translate(-0.4 -1.1)"/><path class="cls-1" d="M144.48,25.73c.73-.15,1.08-.52,1-1.13h-.63V23h1.6v1.4a1.76,1.76,0,0,1-1.85,2Z" transform="translate(-0.4 -1.1)"/><path class="cls-1" d="M155.46,24.85l-1-.9a4.44,4.44,0,0,1-2.56.79,4.26,4.26,0,0,1-4.38-4.31v0a4.31,4.31,0,0,1,4.41-4.34,4.26,4.26,0,0,1,4.37,4.32v0a4.34,4.34,0,0,1-.85,2.58l1,.82ZM153.38,23l-1.45-1.23.94-1.08L154.35,22a3.16,3.16,0,0,0,.41-1.59v0a2.87,2.87,0,0,0-2.86-3,2.83,2.83,0,0,0-2.83,3v0A2.87,2.87,0,0,0,153.38,23Z" transform="translate(-0.4 -1.1)"/><path class="cls-1" d="M157.72,20.43v0a4.25,4.25,0,0,1,4.33-4.34,4.37,4.37,0,0,1,3.29,1.31l-1,1.09a3.35,3.35,0,0,0-2.35-1,2.83,2.83,0,0,0-2.77,3v0a2.83,2.83,0,0,0,2.77,3,3.29,3.29,0,0,0,2.41-1.08l1,1A4.35,4.35,0,0,1,162,24.74,4.22,4.22,0,0,1,157.72,20.43Z" transform="translate(-0.4 -1.1)"/><path class="cls-1" d="M166.28,25.73c.73-.15,1.08-.52,1-1.13h-.62V23h1.59v1.4a1.76,1.76,0,0,1-1.84,2Z" transform="translate(-0.4 -1.1)"/><path class="cls-1" d="M173.84,23.77l.64-1a3.57,3.57,0,0,0,2.08.78c.62,0,1-.26,1-.68v0c0-.49-.67-.66-1.41-.89-.94-.26-2-.64-2-1.85v0a2,2,0,0,1,2.25-1.93,4.43,4.43,0,0,1,2.33.72l-.58,1a3.69,3.69,0,0,0-1.78-.6c-.57,0-.89.27-.89.63v0c0,.47.68.66,1.43.9.92.29,2,.71,2,1.85v0c0,1.33-1,2-2.35,2A4.39,4.39,0,0,1,173.84,23.77Z" transform="translate(-0.4 -1.1)"/><path class="cls-1" d="M180.36,18.27h1.45v1.05A2.54,2.54,0,0,1,184,18.14a3,3,0,0,1,2.94,3.28v0A3,3,0,0,1,184,24.73a2.6,2.6,0,0,1-2.16-1.11v2.9h-1.45Zm5.08,3.18v0a1.87,1.87,0,0,0-1.81-2,1.9,1.9,0,0,0-1.85,2v0a1.9,1.9,0,0,0,1.85,2A1.85,1.85,0,0,0,185.44,21.45Z" transform="translate(-0.4 -1.1)"/><path class="cls-1" d="M188.07,21.46v0a3.13,3.13,0,0,1,3.09-3.29c2,0,3,1.58,3,3.4,0,.13,0,.27,0,.41h-4.65a1.77,1.77,0,0,0,1.82,1.61,2.33,2.33,0,0,0,1.72-.76l.85.76a3.2,3.2,0,0,1-2.59,1.18A3.15,3.15,0,0,1,188.07,21.46Zm4.69-.47a1.65,1.65,0,0,0-1.61-1.67A1.71,1.71,0,0,0,189.51,21Zm-.95-5.49,1.32.58-1.48,1.38h-1.09Z" transform="translate(-0.4 -1.1)"/><path class="cls-1" d="M195.31,21.47v0a3.27,3.27,0,0,1,3.3-3.31,3.19,3.19,0,0,1,2.53,1.09l-.91,1a2.11,2.11,0,0,0-1.63-.79,1.91,1.91,0,0,0-1.83,2v0a1.91,1.91,0,0,0,1.89,2,2.2,2.2,0,0,0,1.64-.78l.88.87a3.33,3.33,0,0,1-5.87-2.09Z" transform="translate(-0.4 -1.1)"/><path class="cls-1" d="M202.54,15.92h1.56V17.3h-1.56Zm.06,2.35h1.45V24.6H202.6Z" transform="translate(-0.4 -1.1)"/><path class="cls-1" d="M205.53,22.78v0c0-1.36,1.06-2,2.61-2a5.13,5.13,0,0,1,1.7.27v-.16c0-.9-.55-1.38-1.57-1.38a4.45,4.45,0,0,0-1.81.4l-.38-1.14a5.42,5.42,0,0,1,2.39-.52,2.85,2.85,0,0,1,2.09.71,2.64,2.64,0,0,1,.69,2V24.6h-1.42v-.79a2.55,2.55,0,0,1-2.06.92A2,2,0,0,1,205.53,22.78Zm4.34-.46v-.43a4.09,4.09,0,0,0-1.44-.25c-.94,0-1.49.39-1.49,1.05v0c0,.61.54,1,1.24,1C209.14,23.68,209.87,23.12,209.87,22.32Z" transform="translate(-0.4 -1.1)"/><path class="cls-1" d="M213.07,15.85h1.46V24.6h-1.46Z" transform="translate(-0.4 -1.1)"/><path class="cls-1" d="M216.18,20.21h3.55v1.43h-3.55Z" transform="translate(-0.4 -1.1)"/><path class="cls-1" d="M.94,30.32H2.49V31.7H.94ZM1,32.67H2.45V39H1Z" transform="translate(-0.4 -1.1)"/><path class="cls-1" d="M3.83,38.17l.65-1A3.52,3.52,0,0,0,6.55,38c.62,0,1-.26,1-.68v0c0-.49-.67-.66-1.41-.89-.94-.26-2-.64-2-1.86v0a2,2,0,0,1,2.25-1.93,4.32,4.32,0,0,1,2.33.72l-.57,1a3.72,3.72,0,0,0-1.79-.6c-.56,0-.89.26-.89.62v0c0,.47.68.66,1.43.9.92.29,2,.71,2,1.85v0c0,1.33-1,2-2.36,2A4.39,4.39,0,0,1,3.83,38.17Z" transform="translate(-0.4 -1.1)"/><path class="cls-1" d="M10,35.86v0a3.13,3.13,0,0,1,3.09-3.29c2,0,3,1.58,3,3.4,0,.13,0,.27,0,.41H11.46A1.77,1.77,0,0,0,13.28,38,2.33,2.33,0,0,0,15,37.2l.85.76a3.2,3.2,0,0,1-2.59,1.18A3.15,3.15,0,0,1,10,35.86Zm4.69-.47a1.65,1.65,0,0,0-1.61-1.67,1.71,1.71,0,0,0-1.64,1.67Zm-.95-5.49,1.32.58-1.48,1.38H12.5Z" transform="translate(-0.4 -1.1)"/><path class="cls-1" d="M17.26,35.86v0a3.13,3.13,0,0,1,3.09-3.29c2,0,3,1.58,3,3.4,0,.13,0,.27,0,.41H18.71A1.76,1.76,0,0,0,20.53,38a2.29,2.29,0,0,0,1.71-.76l.86.76a3.2,3.2,0,0,1-2.59,1.18A3.15,3.15,0,0,1,17.26,35.86ZM22,35.39a1.65,1.65,0,0,0-1.61-1.67,1.71,1.71,0,0,0-1.64,1.67Z" transform="translate(-0.4 -1.1)"/><path class="cls-1" d="M37,35.85v0A3,3,0,0,1,40,32.54a2.57,2.57,0,0,1,2.15,1.11v-3.4h1.46V39H42.12V37.94A2.51,2.51,0,0,1,40,39.13,3,3,0,0,1,37,35.85Zm5.12,0v0a1.91,1.91,0,0,0-1.84-2,1.86,1.86,0,0,0-1.82,2v0a1.88,1.88,0,0,0,1.82,2A1.91,1.91,0,0,0,42.15,35.85Z" transform="translate(-0.4 -1.1)"/><path class="cls-1" d="M45,37.18v0c0-1.36,1.07-2,2.62-2a5.13,5.13,0,0,1,1.7.27v-.16c0-.9-.55-1.38-1.57-1.38a4.37,4.37,0,0,0-1.81.4l-.39-1.14a5.45,5.45,0,0,1,2.39-.52,2.81,2.81,0,0,1,2.1.71,2.63,2.63,0,0,1,.68,2V39H49.29v-.79a2.58,2.58,0,0,1-2.06.92A2,2,0,0,1,45,37.18Zm4.34-.46v-.43A4.08,4.08,0,0,0,47.89,36c-.94,0-1.49.39-1.49,1.05v0c0,.61.54,1,1.23,1C48.59,38.08,49.32,37.52,49.32,36.72Z" transform="translate(-0.4 -1.1)"/><path class="cls-1" d="M52.45,32.67H53.9v1a2.28,2.28,0,0,1,2-1.1A2.17,2.17,0,0,1,58.13,35v4H56.68V35.4c0-1-.49-1.55-1.35-1.55a1.41,1.41,0,0,0-1.43,1.58V39H52.45Z" transform="translate(-0.4 -1.1)"/><path class="cls-1" d="M59.37,38.17l.65-1a3.55,3.55,0,0,0,2.07.78c.63,0,1-.26,1-.68v0c0-.49-.67-.66-1.42-.89-.93-.26-2-.64-2-1.86v0a2,2,0,0,1,2.26-1.93,4.31,4.31,0,0,1,2.32.72l-.57,1a3.69,3.69,0,0,0-1.79-.6c-.56,0-.89.26-.89.62v0c0,.47.69.66,1.43.9.92.29,2,.71,2,1.85v0c0,1.33-1,2-2.35,2A4.42,4.42,0,0,1,59.37,38.17Z" transform="translate(-0.4 -1.1)"/><path class="cls-1" d="M78.48,30.25h1.45V39H78.48Z" transform="translate(-0.4 -1.1)"/><path class="cls-1" d="M81.48,35.86v0a3.14,3.14,0,0,1,3.1-3.29c2,0,3,1.58,3,3.4,0,.13,0,.27,0,.41H82.93A1.78,1.78,0,0,0,84.76,38a2.31,2.31,0,0,0,1.71-.76l.85.76a3.31,3.31,0,0,1-5.84-2.1Zm4.69-.47a1.64,1.64,0,0,0-1.6-1.67,1.72,1.72,0,0,0-1.65,1.67Z" transform="translate(-0.4 -1.1)"/><path class="cls-1" d="M88.56,38.17l.65-1a3.57,3.57,0,0,0,2.08.78c.62,0,1-.26,1-.68v0c0-.49-.67-.66-1.42-.89-.93-.26-2-.64-2-1.86v0a2,2,0,0,1,2.26-1.93,4.37,4.37,0,0,1,2.33.72l-.58,1a3.69,3.69,0,0,0-1.79-.6c-.56,0-.88.26-.88.62v0c0,.47.68.66,1.42.9.93.29,2,.71,2,1.85v0c0,1.33-1,2-2.35,2A4.42,4.42,0,0,1,88.56,38.17Z" transform="translate(-0.4 -1.1)"/><path class="cls-1" d="M107.59,32.67H109v1a2.54,2.54,0,0,1,2.16-1.18,3,3,0,0,1,2.94,3.28v0a3,3,0,0,1-2.94,3.28A2.61,2.61,0,0,1,109,38v2.9h-1.45Zm5.07,3.18v0a1.88,1.88,0,0,0-1.81-2,1.91,1.91,0,0,0-1.84,2v0a1.9,1.9,0,0,0,1.84,2A1.85,1.85,0,0,0,112.66,35.85Z" transform="translate(-0.4 -1.1)"/><path class="cls-1" d="M115.57,36.7v-4H117v3.6c0,1,.49,1.53,1.36,1.53a1.4,1.4,0,0,0,1.42-1.56V32.67h1.47V39H119.8V38a2.26,2.26,0,0,1-2,1.11A2.17,2.17,0,0,1,115.57,36.7Z" transform="translate(-0.4 -1.1)"/><path class="cls-1" d="M124.53,38v1h-1.45V30.25h1.45v3.47a2.54,2.54,0,0,1,2.16-1.18,3,3,0,0,1,2.94,3.28v0a3,3,0,0,1-2.94,3.28A2.62,2.62,0,0,1,124.53,38Zm3.62-2.17v0a1.88,1.88,0,0,0-1.81-2,1.91,1.91,0,0,0-1.84,2v0a1.9,1.9,0,0,0,1.84,2A1.85,1.85,0,0,0,128.15,35.85Z" transform="translate(-0.4 -1.1)"/><path class="cls-1" d="M143.93,37.25V33.92h-.8V32.67h.8V30.93h1.45v1.74h1.71v1.25h-1.71V37a.69.69,0,0,0,.78.79,2,2,0,0,0,.9-.21v1.18a2.43,2.43,0,0,1-1.3.33A1.63,1.63,0,0,1,143.93,37.25Z" transform="translate(-0.4 -1.1)"/><path class="cls-1" d="M148,32.67h1.56l1.7,4.65,1.71-4.65h1.53l-2.59,6.38h-1.31Z" transform="translate(-0.4 -1.1)"/><path class="cls-1" d="M167.86,35.86v0A3.13,3.13,0,0,1,171,32.54c2,0,3,1.58,3,3.4,0,.13,0,.27,0,.41h-4.65A1.77,1.77,0,0,0,171.13,38a2.33,2.33,0,0,0,1.72-.76l.85.76a3.2,3.2,0,0,1-2.59,1.18A3.15,3.15,0,0,1,167.86,35.86Zm4.69-.47a1.65,1.65,0,0,0-1.61-1.67,1.71,1.71,0,0,0-1.64,1.67Z" transform="translate(-0.4 -1.1)"/><path class="cls-1" d="M175.75,37.25V33.92H175V32.67h.8V30.93h1.45v1.74h1.71v1.25H177.2V37a.69.69,0,0,0,.78.79,2,2,0,0,0,.9-.21v1.18a2.43,2.43,0,0,1-1.3.33A1.63,1.63,0,0,1,175.75,37.25Z" transform="translate(-0.4 -1.1)"/><path class="cls-1" d="M192.36,32.67h1.48L195.12,37l1.4-4.37h1.25l1.4,4.37,1.29-4.34h1.47l-2.08,6.38h-1.3l-1.42-4.33-1.43,4.33h-1.29Z" transform="translate(-0.4 -1.1)"/><path class="cls-1" d="M202.57,35.86v0a3.13,3.13,0,0,1,3.09-3.29c2,0,3,1.58,3,3.4a2.93,2.93,0,0,1,0,.41H204A1.77,1.77,0,0,0,205.84,38a2.33,2.33,0,0,0,1.72-.76l.85.76a3.2,3.2,0,0,1-2.59,1.18A3.15,3.15,0,0,1,202.57,35.86Zm4.69-.47a1.65,1.65,0,0,0-1.61-1.67A1.71,1.71,0,0,0,204,35.39Z" transform="translate(-0.4 -1.1)"/><path class="cls-1" d="M211.62,38v1h-1.45V30.25h1.45v3.47a2.51,2.51,0,0,1,2.16-1.18,3,3,0,0,1,2.93,3.28v0a3,3,0,0,1-2.93,3.28A2.59,2.59,0,0,1,211.62,38Zm3.62-2.17v0a1.88,1.88,0,0,0-1.81-2,1.91,1.91,0,0,0-1.85,2v0a1.9,1.9,0,0,0,1.85,2A1.85,1.85,0,0,0,215.24,35.85Z" transform="translate(-0.4 -1.1)"/><path class="cls-1" d="M218,37.34h1.6V39H218Z" transform="translate(-0.4 -1.1)"/><path class="cls-1" d="M1.16,45H2.64v8.4H1.16Z" transform="translate(-0.4 -1.1)"/><path class="cls-1" d="M4.37,50.27v0a3.27,3.27,0,0,1,3.3-3.31A3.2,3.2,0,0,1,10.2,48l-.92,1a2.11,2.11,0,0,0-1.63-.79,1.91,1.91,0,0,0-1.83,2v0a1.91,1.91,0,0,0,1.89,2,2.22,2.22,0,0,0,1.65-.78l.87.87a3.2,3.2,0,0,1-2.59,1.18A3.23,3.23,0,0,1,4.37,50.27Z" transform="translate(-0.4 -1.1)"/><path class="cls-1" d="M11.59,44.72h1.56V46.1H11.59Zm.06,2.35H13.1V53.4H11.65Z" transform="translate(-0.4 -1.1)"/><path class="cls-1" d="M14.5,54.53c.73-.15,1.08-.52,1-1.13H14.9V51.75h1.6v1.4a1.76,1.76,0,0,1-1.85,2Z" transform="translate(-0.4 -1.1)"/><path class="cls-1" d="M25.86,50.27v0a3.31,3.31,0,0,1,3.38-3.31,3.27,3.27,0,0,1,3.37,3.28v0a3.31,3.31,0,0,1-3.39,3.29A3.27,3.27,0,0,1,25.86,50.27Zm5.3,0v0a2,2,0,0,0-1.94-2,1.9,1.9,0,0,0-1.91,2v0a2,2,0,0,0,1.93,2A1.9,1.9,0,0,0,31.16,50.27Z" transform="translate(-0.4 -1.1)"/><path class="cls-1" d="M34.09,47.07h1.45v1a2.3,2.3,0,0,1,2-1.1,2.17,2.17,0,0,1,2.26,2.42v4H38.33V49.8c0-1-.5-1.55-1.36-1.55a1.41,1.41,0,0,0-1.43,1.58V53.4H34.09Z" transform="translate(-0.4 -1.1)"/><path class="cls-1" d="M49.51,47.07H51v1a2.27,2.27,0,0,1,2-1.1,2.17,2.17,0,0,1,2.26,2.42v4H53.75V49.8c0-1-.49-1.55-1.36-1.55A1.41,1.41,0,0,0,51,49.83V53.4H49.51Z" transform="translate(-0.4 -1.1)"/><path class="cls-1" d="M56.61,50.26v0a3.13,3.13,0,0,1,3.09-3.29c2,0,3,1.58,3,3.4,0,.13,0,.27,0,.41H58.06a1.77,1.77,0,0,0,1.82,1.61,2.33,2.33,0,0,0,1.72-.76l.85.76a3.2,3.2,0,0,1-2.59,1.18A3.15,3.15,0,0,1,56.61,50.26Zm4.69-.47a1.65,1.65,0,0,0-1.61-1.67,1.71,1.71,0,0,0-1.64,1.67Z" transform="translate(-0.4 -1.1)"/><path class="cls-1" d="M72.18,47.07h1.45V48.5A2.25,2.25,0,0,1,75.88,47v1.53h-.09c-1.27,0-2.16.83-2.16,2.51V53.4H72.18Z" transform="translate(-0.4 -1.1)"/><path class="cls-1" d="M76.58,50.26v0a3.13,3.13,0,0,1,3.09-3.29c2,0,3,1.58,3,3.4,0,.13,0,.27,0,.41H78a1.76,1.76,0,0,0,1.82,1.61,2.33,2.33,0,0,0,1.72-.76l.85.76a3.2,3.2,0,0,1-2.59,1.18A3.15,3.15,0,0,1,76.58,50.26Zm4.69-.47a1.65,1.65,0,0,0-1.61-1.67A1.71,1.71,0,0,0,78,49.79Z" transform="translate(-0.4 -1.1)"/><path class="cls-1" d="M83.82,50.27v0a3.27,3.27,0,0,1,3.3-3.31A3.19,3.19,0,0,1,89.65,48l-.91,1a2.11,2.11,0,0,0-1.63-.79,1.9,1.9,0,0,0-1.83,2v0a1.91,1.91,0,0,0,1.89,2,2.2,2.2,0,0,0,1.64-.78l.88.87a3.33,3.33,0,0,1-5.87-2.09Z" transform="translate(-0.4 -1.1)"/><path class="cls-1" d="M91,51.1v-4H92.4v3.6c0,1,.49,1.53,1.36,1.53a1.4,1.4,0,0,0,1.43-1.56V47.07h1.46V53.4H95.19v-1a2.28,2.28,0,0,1-2,1.11A2.18,2.18,0,0,1,91,51.1Z" transform="translate(-0.4 -1.1)"/><path class="cls-1" d="M98.55,44.65H100V53.4H98.55Z" transform="translate(-0.4 -1.1)"/><path class="cls-1" d="M101.55,50.26v0a3.13,3.13,0,0,1,3.09-3.29c2,0,3,1.58,3,3.4,0,.13,0,.27,0,.41H103a1.77,1.77,0,0,0,1.82,1.61,2.33,2.33,0,0,0,1.72-.76l.85.76a3.2,3.2,0,0,1-2.59,1.18A3.15,3.15,0,0,1,101.55,50.26Zm4.69-.47a1.65,1.65,0,0,0-1.61-1.67A1.71,1.71,0,0,0,103,49.79Z" transform="translate(-0.4 -1.1)"/><path class="cls-1" d="M116.8,50.25v0a3,3,0,0,1,2.94-3.28,2.6,2.6,0,0,1,2.16,1.11v-3.4h1.45V53.4H121.9V52.34a2.54,2.54,0,0,1-2.16,1.19A3,3,0,0,1,116.8,50.25Zm5.12,0v0a1.89,1.89,0,0,0-1.83-2,1.85,1.85,0,0,0-1.83,2v0a1.84,1.84,0,1,0,3.66,0Z" transform="translate(-0.4 -1.1)"/><path class="cls-1" d="M124.83,50.26v0a3.13,3.13,0,0,1,3.09-3.29c2,0,3,1.58,3,3.4a2.93,2.93,0,0,1,0,.41h-4.65a1.77,1.77,0,0,0,1.82,1.61,2.31,2.31,0,0,0,1.72-.76l.85.76a3.2,3.2,0,0,1-2.59,1.18A3.15,3.15,0,0,1,124.83,50.26Zm4.69-.47a1.65,1.65,0,0,0-1.61-1.67,1.71,1.71,0,0,0-1.64,1.67Z" transform="translate(-0.4 -1.1)"/><path class="cls-1" d="M131.53,47.07h1.56l1.7,4.65,1.71-4.65H138l-2.59,6.38h-1.31Z" transform="translate(-0.4 -1.1)"/><path class="cls-1" d="M138.55,51.58v0c0-1.36,1.06-2,2.61-2a5.13,5.13,0,0,1,1.7.27v-.16c0-.9-.55-1.38-1.57-1.38a4.41,4.41,0,0,0-1.81.4l-.38-1.14a5.4,5.4,0,0,1,2.38-.52,2.85,2.85,0,0,1,2.1.71,2.64,2.64,0,0,1,.69,2V53.4h-1.42v-.79a2.58,2.58,0,0,1-2.06.92A2,2,0,0,1,138.55,51.58Zm4.34-.46v-.43a4.18,4.18,0,0,0-1.44-.25c-.94,0-1.49.39-1.49,1.05v0c0,.61.54,1,1.24,1A1.51,1.51,0,0,0,142.89,51.12Z" transform="translate(-0.4 -1.1)"/><path class="cls-1" d="M146,47.07h1.45v1a2.3,2.3,0,0,1,2-1.1,2.17,2.17,0,0,1,2.25,2.42v4h-1.45V49.8c0-1-.49-1.55-1.35-1.55a1.41,1.41,0,0,0-1.43,1.58V53.4H146Z" transform="translate(-0.4 -1.1)"/><path class="cls-1" d="M153.75,51.65V48.32H153V47.07h.8V45.33h1.45v1.74h1.7v1.25h-1.7v3.1a.69.69,0,0,0,.78.79,2,2,0,0,0,.9-.21v1.18a2.47,2.47,0,0,1-1.31.33A1.62,1.62,0,0,1,153.75,51.65Z" transform="translate(-0.4 -1.1)"/><path class="cls-1" d="M166.36,47.07h1.45V48.5A2.25,2.25,0,0,1,170.05,47v1.53H170c-1.27,0-2.16.83-2.16,2.51V53.4h-1.45Z" transform="translate(-0.4 -1.1)"/><path class="cls-1" d="M171.34,44.72h1.56V46.1h-1.56Zm.06,2.35h1.45V53.4H171.4Z" transform="translate(-0.4 -1.1)"/><path class="cls-1" d="M174.4,50.26v0a3.14,3.14,0,0,1,3.1-3.29c2,0,3,1.58,3,3.4,0,.13,0,.27,0,.41h-4.66a1.78,1.78,0,0,0,1.83,1.61,2.31,2.31,0,0,0,1.71-.76l.85.76a3.2,3.2,0,0,1-2.59,1.18A3.16,3.16,0,0,1,174.4,50.26Zm4.69-.47a1.65,1.65,0,0,0-1.61-1.67,1.72,1.72,0,0,0-1.64,1.67Z" transform="translate(-0.4 -1.1)"/><path class="cls-1" d="M182,47.07h1.45v1a2.28,2.28,0,0,1,2-1.1,2.17,2.17,0,0,1,2.25,2.42v4h-1.45V49.8c0-1-.49-1.55-1.35-1.55a1.41,1.41,0,0,0-1.43,1.58V53.4H182Z" transform="translate(-0.4 -1.1)"/><path class="cls-1" d="M188.93,54.53c.73-.15,1.08-.52,1-1.13h-.63V51.75h1.6v1.4a1.76,1.76,0,0,1-1.85,2Z" transform="translate(-0.4 -1.1)"/><path class="cls-1" d="M200.05,47.07h1.56l1.7,4.65L205,47.07h1.53L204,53.45h-1.31Z" transform="translate(-0.4 -1.1)"/><path class="cls-1" d="M207.08,50.27v0a3.31,3.31,0,0,1,3.38-3.31,3.28,3.28,0,0,1,3.37,3.28v0a3.31,3.31,0,0,1-3.39,3.29A3.27,3.27,0,0,1,207.08,50.27Zm5.3,0v0a2,2,0,0,0-1.94-2,1.9,1.9,0,0,0-1.91,2v0a2,2,0,0,0,1.93,2A1.9,1.9,0,0,0,212.38,50.27Z" transform="translate(-0.4 -1.1)"/><path class="cls-1" d="M214.79,52.57l.65-1a3.57,3.57,0,0,0,2.08.78c.62,0,1-.26,1-.68v0c0-.49-.67-.66-1.41-.89-.94-.26-2-.64-2-1.85v0A2,2,0,0,1,217.36,47a4.43,4.43,0,0,1,2.33.72l-.58,1a3.69,3.69,0,0,0-1.79-.6c-.56,0-.88.27-.88.63v0c0,.47.68.66,1.42.9.93.29,2,.71,2,1.85v0c0,1.33-1,2-2.35,2A4.44,4.44,0,0,1,214.79,52.57Z" transform="translate(-0.4 -1.1)"/><path class="cls-1" d="M.91,61.47H2.36v1.05a2.54,2.54,0,0,1,2.16-1.18,3,3,0,0,1,2.94,3.28v0a3,3,0,0,1-2.94,3.28,2.6,2.6,0,0,1-2.16-1.11v2.9H.91ZM6,64.65v0a1.87,1.87,0,0,0-1.82-2,1.9,1.9,0,0,0-1.84,2v0a1.9,1.9,0,0,0,1.84,2A1.86,1.86,0,0,0,6,64.65Z" transform="translate(-0.4 -1.1)"/><path class="cls-1" d="M9,61.47h1.45V62.9a2.25,2.25,0,0,1,2.25-1.55v1.53h-.09c-1.27,0-2.16.83-2.16,2.51V67.8H9Z" transform="translate(-0.4 -1.1)"/><path class="cls-1" d="M13.36,64.67v0a3.31,3.31,0,0,1,3.38-3.31,3.28,3.28,0,0,1,3.37,3.28v0a3.31,3.31,0,0,1-3.4,3.29A3.26,3.26,0,0,1,13.36,64.67Zm5.3,0v0a2,2,0,0,0-1.95-2,1.89,1.89,0,0,0-1.9,2v0a2,2,0,0,0,1.93,2A1.9,1.9,0,0,0,18.66,64.67Z" transform="translate(-0.4 -1.1)"/><path class="cls-1" d="M20.58,69.7V68.53a2,2,0,0,0,.41,0c.41,0,.68-.22.68-.77V61.47h1.45v6.41a1.65,1.65,0,0,1-1.83,1.88A4.83,4.83,0,0,1,20.58,69.7Zm1-10.58h1.56V60.5H21.61Z" transform="translate(-0.4 -1.1)"/><path class="cls-1" d="M24.67,64.66v0a3.14,3.14,0,0,1,3.1-3.29c2,0,3,1.58,3,3.4,0,.13,0,.27,0,.41H26.12A1.78,1.78,0,0,0,28,66.76,2.31,2.31,0,0,0,29.66,66l.85.76a3.31,3.31,0,0,1-5.84-2.1Zm4.69-.47a1.64,1.64,0,0,0-1.61-1.67,1.72,1.72,0,0,0-1.64,1.67Z" transform="translate(-0.4 -1.1)"/><path class="cls-1" d="M31.92,64.67v0a3.27,3.27,0,0,1,3.3-3.31,3.19,3.19,0,0,1,2.53,1.09l-.91,1a2.12,2.12,0,0,0-1.63-.79,1.91,1.91,0,0,0-1.84,2v0a1.92,1.92,0,0,0,1.9,2,2.22,2.22,0,0,0,1.64-.78l.87.87a3.32,3.32,0,0,1-5.86-2.09Z" transform="translate(-0.4 -1.1)"/><path class="cls-1" d="M39.42,66.05V62.72h-.8V61.47h.8V59.73h1.45v1.74h1.7v1.25h-1.7v3.1a.69.69,0,0,0,.78.79,2,2,0,0,0,.9-.21v1.18a2.47,2.47,0,0,1-1.31.33A1.62,1.62,0,0,1,39.42,66.05Z" transform="translate(-0.4 -1.1)"/><path class="cls-1" d="M51.46,59.05h1.45V67.8H51.46Z" transform="translate(-0.4 -1.1)"/><path class="cls-1" d="M54.46,64.66v0a3.13,3.13,0,0,1,3.09-3.29c2,0,3,1.58,3,3.4,0,.13,0,.27,0,.41H55.91a1.76,1.76,0,0,0,1.82,1.61A2.29,2.29,0,0,0,59.44,66l.86.76a3.2,3.2,0,0,1-2.59,1.18A3.15,3.15,0,0,1,54.46,64.66Zm4.68-.47a1.63,1.63,0,0,0-1.6-1.67,1.73,1.73,0,0,0-1.65,1.67Z" transform="translate(-0.4 -1.1)"/><path class="cls-1" d="M61.54,67l.64-1a3.57,3.57,0,0,0,2.08.78c.62,0,1-.26,1-.68v0c0-.49-.67-.66-1.41-.89-.94-.26-2-.64-2-1.85v0a2,2,0,0,1,2.25-1.93,4.43,4.43,0,0,1,2.33.72l-.58,1a3.69,3.69,0,0,0-1.78-.6c-.57,0-.89.27-.89.63v0c0,.47.68.66,1.43.9.92.29,2,.71,2,1.85v0c0,1.33-1,2-2.35,2A4.39,4.39,0,0,1,61.54,67Z" transform="translate(-0.4 -1.1)"/><path class="cls-1" d="M75.38,61.47h1.45v1.05A2.54,2.54,0,0,1,79,61.34a3,3,0,0,1,2.94,3.28v0A3,3,0,0,1,79,67.93a2.6,2.6,0,0,1-2.16-1.11v2.9H75.38Zm5.08,3.18v0a1.87,1.87,0,0,0-1.82-2,1.9,1.9,0,0,0-1.84,2v0a1.9,1.9,0,0,0,1.84,2A1.86,1.86,0,0,0,80.46,64.65Z" transform="translate(-0.4 -1.1)"/><path class="cls-1" d="M83.52,59.05H85V67.8H83.52Z" transform="translate(-0.4 -1.1)"/><path class="cls-1" d="M86.79,65.5v-4h1.45v3.6c0,1,.5,1.53,1.36,1.53A1.4,1.4,0,0,0,91,65V61.47h1.46V67.8H91v-1a2.28,2.28,0,0,1-2,1.11A2.18,2.18,0,0,1,86.79,65.5Z" transform="translate(-0.4 -1.1)"/><path class="cls-1" d="M93.79,67l.65-1a3.52,3.52,0,0,0,2.07.78c.63,0,1-.26,1-.68v0c0-.49-.68-.66-1.42-.89-.93-.26-2-.64-2-1.85v0a2,2,0,0,1,2.26-1.93,4.4,4.4,0,0,1,2.32.72l-.57,1a3.69,3.69,0,0,0-1.79-.6c-.56,0-.89.27-.89.63v0c0,.47.69.66,1.43.9.92.29,2,.71,2,1.85v0c0,1.33-1,2-2.35,2A4.42,4.42,0,0,1,93.79,67Z" transform="translate(-0.4 -1.1)"/><path class="cls-1" d="M108,62.72h-.8V61.5h.8V61a2.11,2.11,0,0,1,.52-1.56A1.88,1.88,0,0,1,109.9,59a4.11,4.11,0,0,1,1.18.17v1.23a2.46,2.46,0,0,0-.85-.16c-.56,0-.84.3-.84,1v.35h1.68v1.2h-1.66V67.8H108Z" transform="translate(-0.4 -1.1)"/><path class="cls-1" d="M111.68,64.67v0a3.31,3.31,0,0,1,3.38-3.31,3.28,3.28,0,0,1,3.37,3.28v0a3.38,3.38,0,0,1-6.75,0Zm5.3,0v0a2,2,0,0,0-1.94-2,1.9,1.9,0,0,0-1.91,2v0a2,2,0,0,0,1.93,2A1.9,1.9,0,0,0,117,64.67Z" transform="translate(-0.4 -1.1)"/><path class="cls-1" d="M119.84,65.5v-4h1.45v3.6c0,1,.49,1.53,1.36,1.53A1.39,1.39,0,0,0,124.07,65V61.47h1.47V67.8h-1.47v-1a2.26,2.26,0,0,1-2,1.11A2.17,2.17,0,0,1,119.84,65.5Z" transform="translate(-0.4 -1.1)"/><path class="cls-1" d="M134.15,67l.65-1a3.57,3.57,0,0,0,2.08.78c.62,0,1-.26,1-.68v0c0-.49-.67-.66-1.41-.89-.94-.26-2-.64-2-1.85v0a2,2,0,0,1,2.25-1.93,4.43,4.43,0,0,1,2.33.72l-.58,1a3.69,3.69,0,0,0-1.79-.6c-.56,0-.88.27-.88.63v0c0,.47.68.66,1.42.9.93.29,2,.71,2,1.85v0c0,1.33-1,2-2.35,2A4.44,4.44,0,0,1,134.15,67Z" transform="translate(-0.4 -1.1)"/><path class="cls-1" d="M140.33,64.66v0a3.14,3.14,0,0,1,3.1-3.29c2,0,3,1.58,3,3.4,0,.13,0,.27,0,.41h-4.65a1.76,1.76,0,0,0,1.82,1.61,2.29,2.29,0,0,0,1.71-.76l.85.76a3.31,3.31,0,0,1-5.84-2.1Zm4.69-.47a1.63,1.63,0,0,0-1.6-1.67,1.72,1.72,0,0,0-1.65,1.67Z" transform="translate(-0.4 -1.1)"/><path class="cls-1" d="M147.93,61.47h1.45V62.9a2.25,2.25,0,0,1,2.24-1.55v1.53h-.08c-1.27,0-2.16.83-2.16,2.51V67.8h-1.45Z" transform="translate(-0.4 -1.1)"/><path class="cls-1" d="M152.32,64.67v0a3.31,3.31,0,0,1,3.38-3.31,3.27,3.27,0,0,1,3.37,3.28v0a3.38,3.38,0,0,1-6.75,0Zm5.3,0v0a2,2,0,0,0-1.94-2,1.9,1.9,0,0,0-1.91,2v0a2,2,0,0,0,1.93,2A1.9,1.9,0,0,0,157.62,64.67Z" transform="translate(-0.4 -1.1)"/><path class="cls-1" d="M160.55,61.47H162v1a2.27,2.27,0,0,1,2-1.1,2.17,2.17,0,0,1,2.26,2.42v4h-1.45V64.2c0-1-.49-1.54-1.36-1.54A1.4,1.4,0,0,0,162,64.23V67.8h-1.46Z" transform="translate(-0.4 -1.1)"/><path class="cls-1" d="M168.29,66.05V62.72h-.8V61.47h.8V59.73h1.45v1.74h1.71v1.25h-1.71v3.1a.69.69,0,0,0,.78.79,2,2,0,0,0,.9-.21v1.18a2.43,2.43,0,0,1-1.3.33A1.63,1.63,0,0,1,168.29,66.05Z" transform="translate(-0.4 -1.1)"/><path class="cls-1" d="M179.82,66v0c0-1.36,1.07-2,2.62-2a5.15,5.15,0,0,1,1.7.26V64c0-.9-.55-1.38-1.57-1.38a4.41,4.41,0,0,0-1.81.4l-.38-1.14a5.4,5.4,0,0,1,2.38-.52,2.85,2.85,0,0,1,2.1.71,2.64,2.64,0,0,1,.69,2V67.8h-1.42V67a2.55,2.55,0,0,1-2.06.92A2,2,0,0,1,179.82,66Zm4.35-.46v-.43a4.18,4.18,0,0,0-1.44-.25c-.94,0-1.49.39-1.49,1v0c0,.61.54,1,1.23,1C183.43,66.88,184.17,66.33,184.17,65.52Z" transform="translate(-0.4 -1.1)"/><path class="cls-1" d="M186.94,64.67v0a3.27,3.27,0,0,1,3.3-3.31,3.19,3.19,0,0,1,2.53,1.09l-.91,1a2.12,2.12,0,0,0-1.63-.79,1.91,1.91,0,0,0-1.84,2v0a1.92,1.92,0,0,0,1.9,2,2.22,2.22,0,0,0,1.64-.78l.87.87a3.32,3.32,0,0,1-5.86-2.09Z" transform="translate(-0.4 -1.1)"/><path class="cls-1" d="M194.07,65.5v-4h1.45v3.6c0,1,.49,1.53,1.35,1.53A1.4,1.4,0,0,0,198.3,65V61.47h1.47V67.8H198.3v-1a2.27,2.27,0,0,1-2,1.11A2.17,2.17,0,0,1,194.07,65.5Z" transform="translate(-0.4 -1.1)"/><path class="cls-1" d="M201.6,59.12h1.56V60.5H201.6Zm.06,2.35h1.46V67.8h-1.46Z" transform="translate(-0.4 -1.1)"/><path class="cls-1" d="M205.1,59.05h1.45V67.8H205.1Z" transform="translate(-0.4 -1.1)"/><path class="cls-1" d="M208.53,59.05H210V67.8h-1.45Z" transform="translate(-0.4 -1.1)"/><path class="cls-1" d="M211.9,59.12h1.56V60.5H211.9Zm.06,2.35h1.45V67.8H212Z" transform="translate(-0.4 -1.1)"/><path class="cls-1" d="M214.79,67l.65-1a3.57,3.57,0,0,0,2.08.78c.62,0,1-.26,1-.68v0c0-.49-.67-.66-1.42-.89-.93-.26-2-.64-2-1.85v0a2,2,0,0,1,2.26-1.93,4.46,4.46,0,0,1,2.33.72l-.58,1a3.69,3.69,0,0,0-1.79-.6c-.56,0-.88.27-.88.63v0c0,.47.68.66,1.42.9.93.29,2,.71,2,1.85v0c0,1.33-1,2-2.35,2A4.42,4.42,0,0,1,214.79,67Z" transform="translate(-0.4 -1.1)"/><path class="cls-1" d="M2.36,81.22v1H.91V73.45H2.36v3.47a2.54,2.54,0,0,1,2.16-1.18A3,3,0,0,1,7.46,79v0a3,3,0,0,1-2.94,3.28A2.62,2.62,0,0,1,2.36,81.22ZM6,79.05v0a1.87,1.87,0,0,0-1.82-2,1.9,1.9,0,0,0-1.84,2v0a1.9,1.9,0,0,0,1.84,2A1.86,1.86,0,0,0,6,79.05Z" transform="translate(-0.4 -1.1)"/><path class="cls-1" d="M9,75.87h1.45v1.42a2.25,2.25,0,0,1,2.25-1.54v1.53h-.09c-1.27,0-2.16.83-2.16,2.51V82.2H9Z" transform="translate(-0.4 -1.1)"/><path class="cls-1" d="M13.2,80.38v0c0-1.36,1.07-2,2.61-2a5.19,5.19,0,0,1,1.71.27v-.16C17.52,77.52,17,77,16,77a4.37,4.37,0,0,0-1.81.4l-.39-1.14a5.45,5.45,0,0,1,2.39-.52,2.87,2.87,0,0,1,2.1.71,2.67,2.67,0,0,1,.68,2V82.2H17.51v-.79a2.62,2.62,0,0,1-2.07.92A2,2,0,0,1,13.2,80.38Zm4.34-.46v-.43a4.09,4.09,0,0,0-1.44-.25c-.93,0-1.49.39-1.49,1.05v0c0,.61.54,1,1.24,1C16.81,81.28,17.54,80.72,17.54,79.92Z" transform="translate(-0.4 -1.1)"/><path class="cls-1" d="M20.15,81.37l.65-1a3.52,3.52,0,0,0,2.07.78c.62,0,1-.26,1-.68v0c0-.49-.67-.66-1.41-.89-.94-.26-2-.64-2-1.86v0a2,2,0,0,1,2.25-1.93,4.41,4.41,0,0,1,2.33.72l-.57,1a3.72,3.72,0,0,0-1.79-.6c-.57,0-.89.26-.89.63v0c0,.47.68.66,1.43.9.92.29,2,.71,2,1.85v0c0,1.33-1,2-2.36,2A4.39,4.39,0,0,1,20.15,81.37Z" transform="translate(-0.4 -1.1)"/><path class="cls-1" d="M29.34,79.07v0a3.31,3.31,0,0,1,3.39-3.31A3.28,3.28,0,0,1,36.1,79v0a3.31,3.31,0,0,1-3.4,3.29A3.27,3.27,0,0,1,29.34,79.07Zm5.31,0v0a2,2,0,0,0-1.95-2,1.89,1.89,0,0,0-1.9,2v0a2,2,0,0,0,1.93,2A1.9,1.9,0,0,0,34.65,79.07Z" transform="translate(-0.4 -1.1)"/><path class="cls-1" d="M37.5,79.9v-4H39v3.6c0,1,.49,1.53,1.35,1.53a1.4,1.4,0,0,0,1.43-1.56V75.87H43.2V82.2H41.74v-1a2.28,2.28,0,0,1-2,1.11A2.18,2.18,0,0,1,37.5,79.9Z" transform="translate(-0.4 -1.1)"/><path class="cls-1" d="M44.42,75.87H46l1.7,4.65,1.71-4.65h1.53l-2.59,6.38H47Z" transform="translate(-0.4 -1.1)"/><path class="cls-1" d="M51.45,79.06v0a3.13,3.13,0,0,1,3.09-3.29c2,0,3,1.58,3,3.4a2.93,2.93,0,0,1,0,.41H52.9a1.77,1.77,0,0,0,1.82,1.61,2.33,2.33,0,0,0,1.72-.76l.85.76a3.2,3.2,0,0,1-2.59,1.18A3.15,3.15,0,0,1,51.45,79.06Zm4.69-.47a1.65,1.65,0,0,0-1.61-1.67,1.71,1.71,0,0,0-1.64,1.67Z" transform="translate(-0.4 -1.1)"/><path class="cls-1" d="M59,75.87H60.5v1.42a2.23,2.23,0,0,1,2.24-1.54v1.53h-.09c-1.27,0-2.15.83-2.15,2.51V82.2H59Z" transform="translate(-0.4 -1.1)"/><path class="cls-1" d="M64.3,80.45V77.12h-.8V75.87h.8V74.13h1.45v1.74h1.7v1.25h-1.7v3.1a.69.69,0,0,0,.78.79,2,2,0,0,0,.9-.21V82a2.47,2.47,0,0,1-1.31.33A1.63,1.63,0,0,1,64.3,80.45Z" transform="translate(-0.4 -1.1)"/><path class="cls-1" d="M72,75.87H73.4v1a2.54,2.54,0,0,1,2.16-1.18A3,3,0,0,1,78.5,79v0a3,3,0,0,1-2.94,3.28,2.62,2.62,0,0,1-2.16-1.11v2.9H72ZM77,79.05v0a1.87,1.87,0,0,0-1.81-2,1.9,1.9,0,0,0-1.84,2v0a1.9,1.9,0,0,0,1.84,2A1.85,1.85,0,0,0,77,79.05Z" transform="translate(-0.4 -1.1)"/><path class="cls-1" d="M79.58,80.38v0c0-1.36,1.07-2,2.62-2a5.18,5.18,0,0,1,1.7.27v-.16c0-.9-.55-1.38-1.57-1.38a4.37,4.37,0,0,0-1.81.4l-.39-1.14a5.45,5.45,0,0,1,2.39-.52,2.85,2.85,0,0,1,2.1.71,2.63,2.63,0,0,1,.68,2V82.2H83.89v-.79a2.59,2.59,0,0,1-2.07.92A2,2,0,0,1,79.58,80.38Zm4.34-.46v-.43a4.09,4.09,0,0,0-1.44-.25c-.93,0-1.48.39-1.48,1.05v0c0,.61.54,1,1.23,1C83.19,81.28,83.92,80.72,83.92,79.92Z" transform="translate(-0.4 -1.1)"/><path class="cls-1" d="M87.05,75.87H88.5v1.42a2.23,2.23,0,0,1,2.24-1.54v1.53h-.08c-1.28,0-2.16.83-2.16,2.51V82.2H87.05Z" transform="translate(-0.4 -1.1)"/><path class="cls-1" d="M95,75.87h1.45v1a2.3,2.3,0,0,1,2-1.1,2.17,2.17,0,0,1,2.25,2.42v4H99.25V78.6c0-1-.49-1.55-1.35-1.55a1.41,1.41,0,0,0-1.43,1.58V82.2H95Z" transform="translate(-0.4 -1.1)"/><path class="cls-1" d="M102.11,79.07v0a3.31,3.31,0,0,1,3.38-3.31A3.27,3.27,0,0,1,108.86,79v0a3.38,3.38,0,0,1-6.75,0Zm5.3,0v0a2,2,0,0,0-1.94-2,1.9,1.9,0,0,0-1.91,2v0a2,2,0,0,0,1.93,2A1.9,1.9,0,0,0,107.41,79.07Z" transform="translate(-0.4 -1.1)"/><path class="cls-1" d="M109.83,81.37l.65-1a3.52,3.52,0,0,0,2.07.78c.62,0,1-.26,1-.68v0c0-.49-.67-.66-1.41-.89-.94-.26-2-.64-2-1.86v0a2,2,0,0,1,2.25-1.93,4.41,4.41,0,0,1,2.33.72l-.57,1a3.72,3.72,0,0,0-1.79-.6c-.56,0-.89.26-.89.63v0c0,.47.68.66,1.43.9.92.29,2,.71,2,1.85v0c0,1.33-1,2-2.36,2A4.39,4.39,0,0,1,109.83,81.37Z" transform="translate(-0.4 -1.1)"/><path class="cls-1" d="M118.86,81.37l.65-1a3.52,3.52,0,0,0,2.07.78c.62,0,1-.26,1-.68v0c0-.49-.67-.66-1.41-.89-.94-.26-2-.64-2-1.86v0a2,2,0,0,1,2.25-1.93,4.41,4.41,0,0,1,2.33.72l-.58,1a3.66,3.66,0,0,0-1.78-.6c-.57,0-.89.26-.89.63v0c0,.47.68.66,1.43.9.92.29,2,.71,2,1.85v0c0,1.33-1,2-2.35,2A4.39,4.39,0,0,1,118.86,81.37Z" transform="translate(-0.4 -1.1)"/><path class="cls-1" d="M125.38,75.87h1.46v1A2.5,2.5,0,0,1,129,75.74,3,3,0,0,1,131.93,79v0A3,3,0,0,1,129,82.33a2.59,2.59,0,0,1-2.15-1.11v2.9h-1.46Zm5.08,3.18v0a1.87,1.87,0,0,0-1.81-2,1.9,1.9,0,0,0-1.85,2v0a1.9,1.9,0,0,0,1.85,2A1.85,1.85,0,0,0,130.46,79.05Z" transform="translate(-0.4 -1.1)"/><path class="cls-1" d="M133.09,79.06v0a3.13,3.13,0,0,1,3.09-3.29c2,0,3,1.58,3,3.4a2.93,2.93,0,0,1,0,.41h-4.65a1.77,1.77,0,0,0,1.82,1.61,2.33,2.33,0,0,0,1.72-.76l.85.76a3.2,3.2,0,0,1-2.59,1.18A3.15,3.15,0,0,1,133.09,79.06Zm4.69-.47a1.65,1.65,0,0,0-1.61-1.67,1.71,1.71,0,0,0-1.64,1.67Zm-.95-5.49,1.32.58-1.48,1.38h-1.09Z" transform="translate(-0.4 -1.1)"/><path class="cls-1" d="M140.34,79.07v0a3.27,3.27,0,0,1,3.29-3.31,3.21,3.21,0,0,1,2.54,1.09l-.92,1a2.11,2.11,0,0,0-1.63-.79,1.91,1.91,0,0,0-1.83,2v0a1.91,1.91,0,0,0,1.89,2,2.22,2.22,0,0,0,1.65-.78l.87.87a3.32,3.32,0,0,1-5.86-2.09Z" transform="translate(-0.4 -1.1)"/><path class="cls-1" d="M147.56,73.52h1.56V74.9h-1.56Zm.06,2.35h1.45V82.2h-1.45Z" transform="translate(-0.4 -1.1)"/><path class="cls-1" d="M150.55,80.38v0c0-1.36,1.07-2,2.61-2a5.19,5.19,0,0,1,1.71.27v-.16c0-.9-.55-1.38-1.57-1.38a4.46,4.46,0,0,0-1.82.4l-.38-1.14a5.45,5.45,0,0,1,2.39-.52,2.89,2.89,0,0,1,2.1.71,2.67,2.67,0,0,1,.68,2V82.2h-1.42v-.79a2.58,2.58,0,0,1-2.06.92A2,2,0,0,1,150.55,80.38Zm4.34-.46v-.43a4.09,4.09,0,0,0-1.44-.25c-.93,0-1.49.39-1.49,1.05v0c0,.61.54,1,1.24,1C154.16,81.28,154.89,80.72,154.89,79.92Z" transform="translate(-0.4 -1.1)"/><path class="cls-1" d="M158.1,73.45h1.45V82.2H158.1Z" transform="translate(-0.4 -1.1)"/><path class="cls-1" d="M161.47,73.52H163V74.9h-1.56Zm.06,2.35H163V82.2h-1.45Z" transform="translate(-0.4 -1.1)"/><path class="cls-1" d="M164.36,81.37l.65-1a3.55,3.55,0,0,0,2.07.78c.63,0,1-.26,1-.68v0c0-.49-.67-.66-1.42-.89-.93-.26-2-.64-2-1.86v0a2,2,0,0,1,2.26-1.93,4.4,4.4,0,0,1,2.32.72l-.57,1a3.69,3.69,0,0,0-1.79-.6c-.56,0-.89.26-.89.63v0c0,.47.69.66,1.43.9.93.29,2,.71,2,1.85v0c0,1.33-1,2-2.35,2A4.42,4.42,0,0,1,164.36,81.37Z" transform="translate(-0.4 -1.1)"/><path class="cls-1" d="M171.07,80.45V77.12h-.8V75.87h.8V74.13h1.45v1.74h1.7v1.25h-1.7v3.1a.69.69,0,0,0,.78.79,2,2,0,0,0,.9-.21V82a2.47,2.47,0,0,1-1.31.33A1.62,1.62,0,0,1,171.07,80.45Z" transform="translate(-0.4 -1.1)"/><path class="cls-1" d="M175.17,79.06v0a3.14,3.14,0,0,1,3.1-3.29c2,0,3,1.58,3,3.4,0,.13,0,.27,0,.41h-4.66a1.78,1.78,0,0,0,1.83,1.61,2.31,2.31,0,0,0,1.71-.76l.85.76a3.31,3.31,0,0,1-5.84-2.1Zm4.69-.47a1.63,1.63,0,0,0-1.6-1.67,1.72,1.72,0,0,0-1.65,1.67Z" transform="translate(-0.4 -1.1)"/><path class="cls-1" d="M185.79,75.87h1.45v1a2.26,2.26,0,0,1,1.93-1.09,2,2,0,0,1,1.89,1.11,2.56,2.56,0,0,1,2.14-1.11,2.13,2.13,0,0,1,2.22,2.42v4H194V78.6c0-1-.47-1.55-1.29-1.55s-1.35.56-1.35,1.58V82.2h-1.45V78.59c0-1-.48-1.54-1.29-1.54s-1.35.6-1.35,1.58V82.2h-1.45Z" transform="translate(-0.4 -1.1)"/><path class="cls-1" d="M197.12,79.9v-4h1.45v3.6c0,1,.49,1.53,1.35,1.53a1.4,1.4,0,0,0,1.43-1.56V75.87h1.46V82.2h-1.46v-1a2.28,2.28,0,0,1-2,1.11A2.17,2.17,0,0,1,197.12,79.9Z" transform="translate(-0.4 -1.1)"/><path class="cls-1" d="M204.71,73.45h1.45V82.2h-1.45Z" transform="translate(-0.4 -1.1)"/><path class="cls-1" d="M208.36,80.45V77.12h-.8V75.87h.8V74.13h1.45v1.74h1.7v1.25h-1.7v3.1a.69.69,0,0,0,.78.79,2,2,0,0,0,.9-.21V82a2.47,2.47,0,0,1-1.31.33A1.62,1.62,0,0,1,208.36,80.45Z" transform="translate(-0.4 -1.1)"/><path class="cls-1" d="M213,73.52h1.55V74.9H213Zm.06,2.35h1.45V82.2h-1.45Z" transform="translate(-0.4 -1.1)"/><path class="cls-1" d="M216.18,77.81h3.55v1.43h-3.55Z" transform="translate(-0.4 -1.1)"/><path class="cls-1" d="M.59,93.45v0a3,3,0,0,1,2.94-3.28,2.6,2.6,0,0,1,2.16,1.11v-3.4H7.14V96.6H5.69V95.54a2.52,2.52,0,0,1-2.16,1.19A3,3,0,0,1,.59,93.45Zm5.12,0v0a1.89,1.89,0,0,0-1.84-2,1.85,1.85,0,0,0-1.82,2v0a1.88,1.88,0,0,0,1.82,2A1.9,1.9,0,0,0,5.71,93.45Z" transform="translate(-0.4 -1.1)"/><path class="cls-1" d="M9,87.92h1.56V89.3H9Zm.06,2.35H10.5V96.6H9.05Z" transform="translate(-0.4 -1.1)"/><path class="cls-1" d="M12.05,93.47v0a3.27,3.27,0,0,1,3.3-3.31,3.2,3.2,0,0,1,2.53,1.09l-.91,1a2.14,2.14,0,0,0-1.64-.79,1.91,1.91,0,0,0-1.83,2v0a1.91,1.91,0,0,0,1.89,2A2.22,2.22,0,0,0,17,94.69l.87.87a3.32,3.32,0,0,1-5.86-2.09Z" transform="translate(-0.4 -1.1)"/><path class="cls-1" d="M19.27,87.92h1.56V89.3H19.27Zm.06,2.35h1.45V96.6H19.33Z" transform="translate(-0.4 -1.1)"/><path class="cls-1" d="M22.68,90.27h1.45v1a2.54,2.54,0,0,1,2.16-1.18,3,3,0,0,1,2.94,3.28v0a3,3,0,0,1-2.94,3.28,2.57,2.57,0,0,1-2.16-1.11v2.9H22.68Zm5.07,3.18v0a1.87,1.87,0,0,0-1.81-2,1.91,1.91,0,0,0-1.85,2v0a1.91,1.91,0,0,0,1.85,2A1.85,1.85,0,0,0,27.75,93.45Z" transform="translate(-0.4 -1.1)"/><path class="cls-1" d="M30.82,87.85h1.45V96.6H30.82Z" transform="translate(-0.4 -1.1)"/><path class="cls-1" d="M34.19,87.92h1.56V89.3H34.19Zm.06,2.35H35.7V96.6H34.25Z" transform="translate(-0.4 -1.1)"/><path class="cls-1" d="M37.6,90.27h1.45v1a2.27,2.27,0,0,1,2-1.1,2.17,2.17,0,0,1,2.25,2.42v4H41.83V93c0-1-.49-1.54-1.36-1.54A1.4,1.4,0,0,0,39.05,93V96.6H37.6Z" transform="translate(-0.4 -1.1)"/><path class="cls-1" d="M44.62,94.78v0c0-1.36,1.06-2,2.61-2a5.13,5.13,0,0,1,1.7.27v-.16c0-.9-.55-1.38-1.57-1.38a4.41,4.41,0,0,0-1.81.4l-.38-1.14a5.4,5.4,0,0,1,2.38-.52,2.85,2.85,0,0,1,2.1.71,2.64,2.64,0,0,1,.69,2V96.6H48.92v-.79a2.55,2.55,0,0,1-2.06.92A2,2,0,0,1,44.62,94.78ZM49,94.32v-.43a4.14,4.14,0,0,0-1.44-.25c-.94,0-1.49.39-1.49,1v0c0,.61.54,1,1.24,1C48.23,95.68,49,95.12,49,94.32Z" transform="translate(-0.4 -1.1)"/><path class="cls-1" d="M52.1,87.92h1.56V89.3H52.1Zm.06,2.35h1.45V96.6H52.16Z" transform="translate(-0.4 -1.1)"/><path class="cls-1" d="M55.51,90.27H57V91.7a2.25,2.25,0,0,1,2.25-1.55v1.53h-.09c-1.27,0-2.16.83-2.16,2.51V96.6H55.51Z" transform="translate(-0.4 -1.1)"/><path class="cls-1" d="M59.9,93.46v0A3.14,3.14,0,0,1,63,90.14c2,0,3,1.58,3,3.4,0,.13,0,.27,0,.41H61.36a1.76,1.76,0,0,0,1.82,1.61,2.29,2.29,0,0,0,1.71-.76l.85.76a3.31,3.31,0,0,1-5.84-2.1ZM64.59,93A1.63,1.63,0,0,0,63,91.32,1.73,1.73,0,0,0,61.34,93Z" transform="translate(-0.4 -1.1)"/><path class="cls-1" d="M70.58,90.27H72v1a2.54,2.54,0,0,1,2.16-1.18,3,3,0,0,1,2.94,3.28v0a3,3,0,0,1-2.94,3.28A2.57,2.57,0,0,1,72,95.62v2.9H70.58Zm5.07,3.18v0a1.87,1.87,0,0,0-1.81-2,1.91,1.91,0,0,0-1.85,2v0a1.91,1.91,0,0,0,1.85,2A1.85,1.85,0,0,0,75.65,93.45Z" transform="translate(-0.4 -1.1)"/><path class="cls-1" d="M78.21,94.78v0c0-1.36,1.07-2,2.61-2a5.24,5.24,0,0,1,1.71.27v-.16c0-.9-.56-1.38-1.57-1.38a4.46,4.46,0,0,0-1.82.4l-.38-1.14a5.45,5.45,0,0,1,2.39-.52,2.89,2.89,0,0,1,2.1.71,2.67,2.67,0,0,1,.68,2V96.6H82.51v-.79a2.55,2.55,0,0,1-2.06.92A2,2,0,0,1,78.21,94.78Zm4.34-.46v-.43a4.09,4.09,0,0,0-1.44-.25c-.93,0-1.49.39-1.49,1v0c0,.61.54,1,1.24,1C81.82,95.68,82.55,95.12,82.55,94.32Z" transform="translate(-0.4 -1.1)"/><path class="cls-1" d="M85.16,95.77l.64-1a3.57,3.57,0,0,0,2.08.78c.62,0,1-.26,1-.68v0c0-.49-.67-.66-1.41-.89-.94-.26-2-.64-2-1.85v0a2,2,0,0,1,2.25-1.93,4.43,4.43,0,0,1,2.33.72l-.58,1a3.66,3.66,0,0,0-1.78-.6c-.57,0-.89.27-.89.63v0c0,.47.68.66,1.43.9.92.29,2,.71,2,1.85v0c0,1.33-1,2-2.35,2A4.39,4.39,0,0,1,85.16,95.77Z" transform="translate(-0.4 -1.1)"/><path class="cls-1" d="M91.05,95.77l.65-1a3.52,3.52,0,0,0,2.07.78c.62,0,1-.26,1-.68v0c0-.49-.67-.66-1.41-.89-.94-.26-2-.64-2-1.85v0a2,2,0,0,1,2.25-1.93,4.41,4.41,0,0,1,2.33.72l-.57,1a3.72,3.72,0,0,0-1.79-.6c-.56,0-.89.27-.89.63v0c0,.47.69.66,1.43.9.92.29,2,.71,2,1.85v0c0,1.33-1,2-2.35,2A4.42,4.42,0,0,1,91.05,95.77Z" transform="translate(-0.4 -1.1)"/><path class="cls-1" d="M97.6,87.92h1.56V89.3H97.6Zm.06,2.35h1.45V96.6H97.66Z" transform="translate(-0.4 -1.1)"/><path class="cls-1" d="M100.66,93.47v0A3.31,3.31,0,0,1,104,90.14a3.27,3.27,0,0,1,3.37,3.28v0a3.38,3.38,0,0,1-6.75,0Zm5.3,0v0a2,2,0,0,0-1.94-2,1.9,1.9,0,0,0-1.91,2v0a2,2,0,0,0,1.93,2A1.9,1.9,0,0,0,106,93.47Z" transform="translate(-0.4 -1.1)"/><path class="cls-1" d="M108.89,90.27h1.45v1a2.3,2.3,0,0,1,2-1.1,2.17,2.17,0,0,1,2.26,2.42v4h-1.45V93c0-1-.5-1.54-1.36-1.54A1.41,1.41,0,0,0,110.34,93V96.6h-1.45Z" transform="translate(-0.4 -1.1)"/><path class="cls-1" d="M116.33,90.27h1.45v1a2.3,2.3,0,0,1,2-1.1A2.17,2.17,0,0,1,122,92.56v4h-1.45V93c0-1-.5-1.54-1.36-1.54A1.41,1.41,0,0,0,117.78,93V96.6h-1.45Z" transform="translate(-0.4 -1.1)"/><path class="cls-1" d="M123.42,93.46v0a3.14,3.14,0,0,1,3.1-3.29c2,0,3,1.58,3,3.4,0,.13,0,.27,0,.41h-4.65a1.76,1.76,0,0,0,1.82,1.61,2.29,2.29,0,0,0,1.71-.76l.85.76a3.31,3.31,0,0,1-5.84-2.1Zm4.69-.47a1.63,1.63,0,0,0-1.6-1.67A1.72,1.72,0,0,0,124.86,93Zm-.94-5.49,1.32.58L127,89.46h-1.09Z" transform="translate(-0.4 -1.1)"/><path class="cls-1" d="M130.67,93.46v0a3.14,3.14,0,0,1,3.1-3.29c2,0,3,1.58,3,3.4,0,.13,0,.27,0,.41h-4.66A1.78,1.78,0,0,0,134,95.56a2.31,2.31,0,0,0,1.71-.76l.85.76a3.31,3.31,0,0,1-5.84-2.1Zm4.69-.47a1.64,1.64,0,0,0-1.61-1.67A1.72,1.72,0,0,0,132.11,93Z" transform="translate(-0.4 -1.1)"/><path class="cls-1" d="M141.34,90.27h1.46v1A2.5,2.5,0,0,1,145,90.14a3,3,0,0,1,2.94,3.28v0A3,3,0,0,1,145,96.73a2.56,2.56,0,0,1-2.15-1.11v2.9h-1.46Zm5.08,3.18v0a1.87,1.87,0,0,0-1.81-2,1.9,1.9,0,0,0-1.85,2v0a1.9,1.9,0,0,0,1.85,2A1.85,1.85,0,0,0,146.42,93.45Z" transform="translate(-0.4 -1.1)"/><path class="cls-1" d="M149,94.78v0c0-1.36,1.06-2,2.61-2a5.13,5.13,0,0,1,1.7.27v-.16c0-.9-.55-1.38-1.57-1.38a4.45,4.45,0,0,0-1.81.4l-.38-1.14a5.4,5.4,0,0,1,2.38-.52,2.85,2.85,0,0,1,2.1.71,2.64,2.64,0,0,1,.69,2V96.6h-1.42v-.79a2.55,2.55,0,0,1-2.06.92A2,2,0,0,1,149,94.78Zm4.34-.46v-.43a4.14,4.14,0,0,0-1.44-.25c-.94,0-1.49.39-1.49,1v0c0,.61.54,1,1.24,1C152.59,95.68,153.32,95.12,153.32,94.32Z" transform="translate(-0.4 -1.1)"/><path class="cls-1" d="M156.44,90.27h1.45V91.7a2.25,2.25,0,0,1,2.24-1.55v1.53h-.08c-1.27,0-2.16.83-2.16,2.51V96.6h-1.45Z" transform="translate(-0.4 -1.1)"/><path class="cls-1" d="M164.56,87.85H166V96.6h-1.45Z" transform="translate(-0.4 -1.1)"/><path class="cls-1" d="M167.46,91c.73-.14,1.08-.51,1-1.13h-.62V88.21h1.59v1.4a1.74,1.74,0,0,1-1.84,2Z" transform="translate(-0.4 -1.1)"/><path class="cls-1" d="M170.33,93.46v0a3.13,3.13,0,0,1,3.09-3.29c2,0,3,1.58,3,3.4a2.93,2.93,0,0,1,0,.41h-4.65a1.77,1.77,0,0,0,1.82,1.61,2.33,2.33,0,0,0,1.72-.76l.85.76a3.2,3.2,0,0,1-2.59,1.18A3.15,3.15,0,0,1,170.33,93.46ZM175,93a1.65,1.65,0,0,0-1.61-1.67A1.71,1.71,0,0,0,171.77,93Z" transform="translate(-0.4 -1.1)"/><path class="cls-1" d="M177.92,90.27h1.46v1a2.27,2.27,0,0,1,2-1.1,2.17,2.17,0,0,1,2.26,2.42v4h-1.45V93c0-1-.49-1.54-1.36-1.54A1.4,1.4,0,0,0,179.38,93V96.6h-1.46Z" transform="translate(-0.4 -1.1)"/><path class="cls-1" d="M184.53,90.27h1.55l1.71,4.65,1.71-4.65H191l-2.6,6.38h-1.3Z" transform="translate(-0.4 -1.1)"/><path class="cls-1" d="M192.29,87.92h1.56V89.3h-1.56Zm.06,2.35h1.45V96.6h-1.45Z" transform="translate(-0.4 -1.1)"/><path class="cls-1" d="M195.35,93.46v0a3.13,3.13,0,0,1,3.09-3.29c2,0,3,1.58,3,3.4a2.93,2.93,0,0,1,0,.41H196.8a1.77,1.77,0,0,0,1.82,1.61,2.33,2.33,0,0,0,1.72-.76l.85.76a3.2,3.2,0,0,1-2.59,1.18A3.15,3.15,0,0,1,195.35,93.46ZM200,93a1.65,1.65,0,0,0-1.61-1.67A1.71,1.71,0,0,0,196.79,93Z" transform="translate(-0.4 -1.1)"/><path class="cls-1" d="M205.7,93.45v0a3,3,0,0,1,2.93-3.28,2.57,2.57,0,0,1,2.16,1.11v-3.4h1.46V96.6h-1.46V95.54a2.5,2.5,0,0,1-2.16,1.19A3,3,0,0,1,205.7,93.45Zm5.12,0v0a1.9,1.9,0,0,0-1.84-2,1.85,1.85,0,0,0-1.82,2v0a1.88,1.88,0,0,0,1.82,2A1.91,1.91,0,0,0,210.82,93.45Z" transform="translate(-0.4 -1.1)"/><path class="cls-1" d="M213.72,93.46v0a3.14,3.14,0,0,1,3.1-3.29c2,0,3,1.58,3,3.4,0,.13,0,.27,0,.41h-4.65A1.76,1.76,0,0,0,217,95.56a2.29,2.29,0,0,0,1.71-.76l.86.76a3.21,3.21,0,0,1-2.6,1.18A3.16,3.16,0,0,1,213.72,93.46Zm4.69-.47a1.63,1.63,0,0,0-1.6-1.67A1.73,1.73,0,0,0,215.16,93Z" transform="translate(-0.4 -1.1)"/><path class="cls-1" d="M.91,104.67H2.36v1.42a2.25,2.25,0,0,1,2.25-1.54v1.53H4.52c-1.27,0-2.16.83-2.16,2.51V111H.91Z" transform="translate(-0.4 -1.1)"/><path class="cls-1" d="M5.3,107.86v0a3.14,3.14,0,0,1,3.1-3.29c2,0,3,1.58,3,3.4,0,.13,0,.27,0,.41H6.76A1.76,1.76,0,0,0,8.58,110a2.29,2.29,0,0,0,1.71-.76l.85.76a3.17,3.17,0,0,1-2.59,1.18A3.16,3.16,0,0,1,5.3,107.86Zm4.69-.47a1.63,1.63,0,0,0-1.6-1.67,1.73,1.73,0,0,0-1.65,1.67Zm-.94-5.49,1.32.58-1.48,1.38H7.8Z" transform="translate(-0.4 -1.1)"/><path class="cls-1" d="M12.48,109.18v0c0-1.36,1.07-2,2.61-2a5.19,5.19,0,0,1,1.71.27v-.16c0-.9-.55-1.38-1.57-1.38a4.37,4.37,0,0,0-1.81.4L13,105.1a5.45,5.45,0,0,1,2.39-.52,2.83,2.83,0,0,1,2.1.71,2.63,2.63,0,0,1,.68,2V111H16.79v-.79a2.62,2.62,0,0,1-2.07.92A2,2,0,0,1,12.48,109.18Zm4.34-.46v-.43a4.09,4.09,0,0,0-1.44-.25c-.93,0-1.48.39-1.48,1v0c0,.61.54,1,1.23,1C16.09,110.08,16.82,109.52,16.82,108.72Z" transform="translate(-0.4 -1.1)"/><path class="cls-1" d="M20,102.25h1.45V111H20Z" transform="translate(-0.4 -1.1)"/><path class="cls-1" d="M23.4,102.32H25v1.38H23.4Zm.06,2.35h1.45V111H23.46Z" transform="translate(-0.4 -1.1)"/><path class="cls-1" d="M26.29,110.17l.65-1A3.57,3.57,0,0,0,29,110c.63,0,1-.26,1-.68v0c0-.49-.67-.66-1.42-.89-.93-.26-2-.64-2-1.86v0a2,2,0,0,1,2.26-1.93,4.37,4.37,0,0,1,2.33.72l-.58,1a3.69,3.69,0,0,0-1.79-.6c-.56,0-.88.26-.88.62v0c0,.47.68.66,1.42.9.93.29,2,.71,2,1.85v0c0,1.33-1,2-2.35,2A4.42,4.42,0,0,1,26.29,110.17Z" transform="translate(-0.4 -1.1)"/><path class="cls-1" d="M32.47,107.86v0a3.14,3.14,0,0,1,3.1-3.29c2,0,3,1.58,3,3.4,0,.13,0,.27,0,.41H33.92A1.78,1.78,0,0,0,35.75,110a2.31,2.31,0,0,0,1.71-.76l.85.76a3.31,3.31,0,0,1-5.84-2.1Zm4.69-.47a1.64,1.64,0,0,0-1.61-1.67,1.72,1.72,0,0,0-1.64,1.67Z" transform="translate(-0.4 -1.1)"/><path class="cls-1" d="M40.07,104.67h1.45v1.42a2.24,2.24,0,0,1,2.24-1.54v1.53h-.08c-1.27,0-2.16.83-2.16,2.51V111H40.07Z" transform="translate(-0.4 -1.1)"/><path class="cls-1" d="M57.14,109.94A2.54,2.54,0,0,1,55,111.13,3,3,0,0,1,52,107.85v0A3,3,0,0,1,55,104.54a2.6,2.6,0,0,1,2.16,1.11v-1h1.45v8.25H57.14Zm0-2.09v0a1.9,1.9,0,0,0-1.83-2,1.86,1.86,0,0,0-1.83,2v0a1.84,1.84,0,1,0,3.66,0Z" transform="translate(-0.4 -1.1)"/><path class="cls-1" d="M60.34,108.7v-4h1.45v3.6c0,1,.5,1.53,1.36,1.53a1.4,1.4,0,0,0,1.43-1.56v-3.57H66V111H64.58v-1a2.28,2.28,0,0,1-2,1.11A2.18,2.18,0,0,1,60.34,108.7Z" transform="translate(-0.4 -1.1)"/><path class="cls-1" d="M67.51,107.86v0a3.13,3.13,0,0,1,3.09-3.29c2,0,3,1.58,3,3.4,0,.13,0,.27,0,.41H69A1.77,1.77,0,0,0,70.78,110a2.33,2.33,0,0,0,1.72-.76l.85.76a3.2,3.2,0,0,1-2.59,1.18A3.15,3.15,0,0,1,67.51,107.86Zm4.69-.47a1.65,1.65,0,0,0-1.61-1.67A1.71,1.71,0,0,0,69,107.39Z" transform="translate(-0.4 -1.1)"/><path class="cls-1" d="M75.19,102.25h1.45V111H75.19Z" transform="translate(-0.4 -1.1)"/><path class="cls-1" d="M83.31,109.94a2.54,2.54,0,0,1-2.16,1.19,3,3,0,0,1-2.94-3.28v0a3,3,0,0,1,2.94-3.28,2.6,2.6,0,0,1,2.16,1.11v-1h1.45v8.25H83.31Zm0-2.09v0a1.9,1.9,0,0,0-1.83-2,1.86,1.86,0,0,0-1.83,2v0a1.84,1.84,0,1,0,3.66,0Z" transform="translate(-0.4 -1.1)"/><path class="cls-1" d="M86.51,108.7v-4H88v3.6c0,1,.49,1.53,1.35,1.53a1.4,1.4,0,0,0,1.43-1.56v-3.57h1.46V111H90.75v-1a2.28,2.28,0,0,1-2,1.11A2.18,2.18,0,0,1,86.51,108.7Z" transform="translate(-0.4 -1.1)"/><path class="cls-1" d="M93.68,107.86v0a3.13,3.13,0,0,1,3.09-3.29c2,0,3,1.58,3,3.4a2.93,2.93,0,0,1,0,.41H95.13A1.77,1.77,0,0,0,97,110a2.33,2.33,0,0,0,1.72-.76l.85.76a3.2,3.2,0,0,1-2.59,1.18A3.15,3.15,0,0,1,93.68,107.86Zm4.69-.47a1.65,1.65,0,0,0-1.61-1.67,1.71,1.71,0,0,0-1.64,1.67Z" transform="translate(-0.4 -1.1)"/><path class="cls-1" d="M108.27,107.87v0a3.27,3.27,0,0,1,3.29-3.31,3.21,3.21,0,0,1,2.54,1.09l-.92,1a2.11,2.11,0,0,0-1.63-.79,1.91,1.91,0,0,0-1.83,2v0a1.91,1.91,0,0,0,1.89,2,2.22,2.22,0,0,0,1.65-.78l.87.87a3.32,3.32,0,0,1-5.86-2.09Z" transform="translate(-0.4 -1.1)"/><path class="cls-1" d="M115.47,102.25h1.45v3.39a2.28,2.28,0,0,1,2-1.1,2.17,2.17,0,0,1,2.25,2.42v4H119.7v-3.6c0-1-.49-1.55-1.36-1.55a1.41,1.41,0,0,0-1.42,1.58V111h-1.45Z" transform="translate(-0.4 -1.1)"/><path class="cls-1" d="M122.56,107.87v0a3.31,3.31,0,0,1,3.38-3.31,3.28,3.28,0,0,1,3.37,3.28v0a3.31,3.31,0,0,1-3.39,3.29A3.27,3.27,0,0,1,122.56,107.87Zm5.3,0v0a2,2,0,0,0-1.94-2,1.9,1.9,0,0,0-1.91,2v0a2,2,0,0,0,1.93,2A1.9,1.9,0,0,0,127.86,107.87Z" transform="translate(-0.4 -1.1)"/><path class="cls-1" d="M130.27,110.17l.65-1A3.57,3.57,0,0,0,133,110c.62,0,1-.26,1-.68v0c0-.49-.67-.66-1.41-.89-.94-.26-2-.64-2-1.86v0a2,2,0,0,1,2.25-1.93,4.35,4.35,0,0,1,2.33.72l-.58,1a3.69,3.69,0,0,0-1.79-.6c-.56,0-.88.26-.88.62v0c0,.47.68.66,1.42.9.93.29,2,.71,2,1.85v0c0,1.33-1,2-2.35,2A4.44,4.44,0,0,1,130.27,110.17Z" transform="translate(-0.4 -1.1)"/><path class="cls-1" d="M136.45,107.86v0a3.14,3.14,0,0,1,3.1-3.29c2,0,3,1.58,3,3.4,0,.13,0,.27,0,.41h-4.65a1.76,1.76,0,0,0,1.82,1.61,2.29,2.29,0,0,0,1.71-.76l.85.76a3.31,3.31,0,0,1-5.84-2.1Zm4.69-.47a1.63,1.63,0,0,0-1.6-1.67,1.73,1.73,0,0,0-1.65,1.67Z" transform="translate(-0.4 -1.1)"/><path class="cls-1" d="M151.07,107.85v0a3,3,0,0,1,2.93-3.28,2.57,2.57,0,0,1,2.16,1.11v-3.4h1.45V111h-1.45v-1.06a2.54,2.54,0,0,1-2.16,1.19A3,3,0,0,1,151.07,107.85Zm5.12,0v0a1.91,1.91,0,0,0-1.84-2,1.86,1.86,0,0,0-1.82,2v0a1.88,1.88,0,0,0,1.82,2A1.91,1.91,0,0,0,156.19,107.85Z" transform="translate(-0.4 -1.1)"/><path class="cls-1" d="M159.09,107.86v0a3.14,3.14,0,0,1,3.1-3.29c2,0,3,1.58,3,3.4,0,.13,0,.27,0,.41h-4.66a1.78,1.78,0,0,0,1.83,1.61,2.31,2.31,0,0,0,1.71-.76l.85.76a3.31,3.31,0,0,1-5.84-2.1Zm4.69-.47a1.64,1.64,0,0,0-1.61-1.67,1.72,1.72,0,0,0-1.64,1.67Z" transform="translate(-0.4 -1.1)"/><path class="cls-1" d="M175.48,110v1H174v-8.75h1.45v3.47a2.54,2.54,0,0,1,2.16-1.18,3,3,0,0,1,2.94,3.28v0a3,3,0,0,1-2.94,3.28A2.59,2.59,0,0,1,175.48,110Zm3.62-2.17v0a1.88,1.88,0,0,0-1.81-2,1.92,1.92,0,0,0-1.85,2v0a1.91,1.91,0,0,0,1.85,2A1.85,1.85,0,0,0,179.1,107.85Z" transform="translate(-0.4 -1.1)"/><path class="cls-1" d="M181.66,109.18v0c0-1.36,1.07-2,2.61-2a5.19,5.19,0,0,1,1.71.27v-.16c0-.9-.55-1.38-1.57-1.38a4.46,4.46,0,0,0-1.82.4l-.38-1.14a5.45,5.45,0,0,1,2.39-.52,2.83,2.83,0,0,1,2.1.71,2.67,2.67,0,0,1,.68,2V111H186v-.79a2.62,2.62,0,0,1-2.07.92A2,2,0,0,1,181.66,109.18Zm4.34-.46v-.43a4.09,4.09,0,0,0-1.44-.25c-.93,0-1.49.39-1.49,1v0c0,.61.54,1,1.24,1C185.27,110.08,186,109.52,186,108.72Z" transform="translate(-0.4 -1.1)"/><path class="cls-1" d="M189.12,104.67h1.45v1a2.3,2.3,0,0,1,2-1.1,2.17,2.17,0,0,1,2.26,2.42v4h-1.45v-3.6c0-1-.5-1.55-1.36-1.55a1.41,1.41,0,0,0-1.43,1.58V111h-1.45Z" transform="translate(-0.4 -1.1)"/><path class="cls-1" d="M196.14,109.18v0c0-1.36,1.07-2,2.62-2a5.13,5.13,0,0,1,1.7.27v-.16c0-.9-.55-1.38-1.57-1.38a4.37,4.37,0,0,0-1.81.4l-.38-1.14a5.37,5.37,0,0,1,2.38-.52,2.81,2.81,0,0,1,2.1.71,2.63,2.63,0,0,1,.68,2V111h-1.41v-.79a2.58,2.58,0,0,1-2.06.92A2,2,0,0,1,196.14,109.18Zm4.35-.46v-.43a4.18,4.18,0,0,0-1.44-.25c-.94,0-1.49.39-1.49,1v0c0,.61.54,1,1.23,1C199.75,110.08,200.49,109.52,200.49,108.72Z" transform="translate(-0.4 -1.1)"/><path class="cls-1" d="M203.61,104.67h1.45v1a2.28,2.28,0,0,1,2-1.1,2.17,2.17,0,0,1,2.25,2.42v4h-1.45v-3.6c0-1-.49-1.55-1.35-1.55a1.41,1.41,0,0,0-1.43,1.58V111h-1.45Z" transform="translate(-0.4 -1.1)"/><path class="cls-1" d="M210.63,109.18v0c0-1.36,1.06-2,2.61-2a5.24,5.24,0,0,1,1.71.27v-.16c0-.9-.56-1.38-1.58-1.38a4.45,4.45,0,0,0-1.81.4l-.38-1.14a5.42,5.42,0,0,1,2.39-.52,2.8,2.8,0,0,1,2.09.71,2.64,2.64,0,0,1,.69,2V111h-1.42v-.79a2.58,2.58,0,0,1-2.06.92A2,2,0,0,1,210.63,109.18Zm4.34-.46v-.43a4.09,4.09,0,0,0-1.44-.25c-.94,0-1.49.39-1.49,1v0c0,.61.54,1,1.24,1C214.24,110.08,215,109.52,215,108.72Z" transform="translate(-0.4 -1.1)"/><path class="cls-1" d="M218,109.34h1.6V111H218Z" transform="translate(-0.4 -1.1)"/><path class="cls-1" d="M109.89,131.41h1.47v8.39h-1.47Z" transform="translate(-0.4 -1.1)"/><path class="cls-1" d="M113.44,133.47h1.45v1a2.3,2.3,0,0,1,2-1.1,2.17,2.17,0,0,1,2.25,2.42v4h-1.45v-3.6c0-1-.49-1.54-1.35-1.54a1.41,1.41,0,0,0-1.43,1.57v3.57h-1.45Z" transform="translate(-0.4 -1.1)"/><path class="cls-1" d="M121.2,134.72h-.8V133.5h.8V133a2.11,2.11,0,0,1,.52-1.56,1.91,1.91,0,0,1,1.43-.51,4,4,0,0,1,1.17.17v1.23a2.46,2.46,0,0,0-.85-.16c-.55,0-.84.3-.84,1v.35h1.68v1.2h-1.66v5.08H121.2Z" transform="translate(-0.4 -1.1)"/><path class="cls-1" d="M124.92,136.67v0a3.31,3.31,0,0,1,3.39-3.31,3.28,3.28,0,0,1,3.37,3.28v0a3.38,3.38,0,0,1-6.76,0Zm5.3,0v0a2,2,0,0,0-1.94-2,1.89,1.89,0,0,0-1.9,2v0a2,2,0,0,0,1.93,2A1.89,1.89,0,0,0,130.22,136.67Z" transform="translate(-0.4 -1.1)"/><path class="cls-1" d="M132.88,136.51a5.25,5.25,0,0,1,5.25-5.25,5.07,5.07,0,0,1,5.23,4.75c0,2-1.09,3-2.33,3a2,2,0,0,1-1.77-.84,2.53,2.53,0,0,1-1.86.84,2.14,2.14,0,0,1-2.17-2.27,2.92,2.92,0,0,1,2.72-3,1.88,1.88,0,0,1,1.69.89l.15-.72,1.16.18-.53,3a5.18,5.18,0,0,0-.06.52.84.84,0,0,0,.94.85c.85,0,1.58-.82,1.58-2.46a4.57,4.57,0,0,0-4.75-4.29,4.79,4.79,0,1,0,.1,9.57,5.47,5.47,0,0,0,3-.81l.22.36a5.84,5.84,0,0,1-3.18.9A5.23,5.23,0,0,1,132.88,136.51Zm5.91,1a2.05,2.05,0,0,0,.59-1.43,1.23,1.23,0,0,0-1.26-1.3,1.54,1.54,0,0,0-1.09.48,2,2,0,0,0-.56,1.42,1.18,1.18,0,0,0,1.25,1.29A1.48,1.48,0,0,0,138.79,137.49Z" transform="translate(-0.4 -1.1)"/><path class="cls-1" d="M145,131.05h1.45v8.75H145Z" transform="translate(-0.4 -1.1)"/><path class="cls-1" d="M147.93,138v0c0-1.36,1.06-2,2.61-2a5.26,5.26,0,0,1,1.71.26V136c0-.9-.56-1.38-1.58-1.38a4.45,4.45,0,0,0-1.81.4l-.38-1.14a5.42,5.42,0,0,1,2.39-.52,2.85,2.85,0,0,1,2.09.71,2.64,2.64,0,0,1,.69,2v3.75h-1.42V139a2.55,2.55,0,0,1-2.06.92A2,2,0,0,1,147.93,138Zm4.34-.46v-.43a4.09,4.09,0,0,0-1.44-.25c-.94,0-1.49.39-1.49,1v0c0,.61.54,1,1.24,1C151.54,138.88,152.27,138.33,152.27,137.52Z" transform="translate(-0.4 -1.1)"/><path class="cls-1" d="M155.15,135.41h3.55v1.43h-3.55Z" transform="translate(-0.4 -1.1)"/><path class="cls-1" d="M161.74,138.82v1h-1.45v-8.75h1.45v3.47a2.54,2.54,0,0,1,2.16-1.18,3,3,0,0,1,2.94,3.28v0a3,3,0,0,1-2.94,3.28A2.57,2.57,0,0,1,161.74,138.82Zm3.62-2.17v0a1.87,1.87,0,0,0-1.81-2,1.91,1.91,0,0,0-1.85,2v0a1.91,1.91,0,0,0,1.85,2A1.85,1.85,0,0,0,165.36,136.65Z" transform="translate(-0.4 -1.1)"/><path class="cls-1" d="M167.92,138v0c0-1.36,1.07-2,2.61-2a5.21,5.21,0,0,1,1.71.26V136c0-.9-.55-1.38-1.57-1.38a4.46,4.46,0,0,0-1.82.4l-.38-1.14a5.45,5.45,0,0,1,2.39-.52,2.89,2.89,0,0,1,2.1.71,2.67,2.67,0,0,1,.68,2v3.75h-1.42V139a2.55,2.55,0,0,1-2.06.92A2,2,0,0,1,167.92,138Zm4.34-.46v-.43a4.09,4.09,0,0,0-1.44-.25c-.93,0-1.49.39-1.49,1v0c0,.61.54,1,1.24,1C171.53,138.88,172.26,138.33,172.26,137.52Z" transform="translate(-0.4 -1.1)"/><path class="cls-1" d="M175.38,133.47h1.45v1a2.3,2.3,0,0,1,2-1.1,2.17,2.17,0,0,1,2.26,2.42v4h-1.45v-3.6c0-1-.5-1.54-1.36-1.54a1.41,1.41,0,0,0-1.43,1.57v3.57h-1.45Z" transform="translate(-0.4 -1.1)"/><path class="cls-1" d="M182.4,138v0c0-1.36,1.07-2,2.62-2a5.15,5.15,0,0,1,1.7.26V136c0-.9-.55-1.38-1.57-1.38a4.37,4.37,0,0,0-1.81.4L183,133.9a5.45,5.45,0,0,1,2.39-.52,2.85,2.85,0,0,1,2.1.71,2.63,2.63,0,0,1,.68,2v3.75h-1.41V139a2.55,2.55,0,0,1-2.06.92A2,2,0,0,1,182.4,138Zm4.34-.46v-.43a4.08,4.08,0,0,0-1.43-.25c-.94,0-1.49.39-1.49,1v0c0,.61.54,1,1.23,1C186,138.88,186.74,138.33,186.74,137.52Z" transform="translate(-0.4 -1.1)"/><path class="cls-1" d="M189.87,133.47h1.45v1a2.28,2.28,0,0,1,2-1.1,2.17,2.17,0,0,1,2.25,2.42v4H194.1v-3.6c0-1-.49-1.54-1.35-1.54a1.41,1.41,0,0,0-1.43,1.57v3.57h-1.45Z" transform="translate(-0.4 -1.1)"/><path class="cls-1" d="M197,136.66v0a3.13,3.13,0,0,1,3.09-3.29c2,0,3,1.58,3,3.4a2.93,2.93,0,0,1,0,.41h-4.65a1.77,1.77,0,0,0,1.82,1.61A2.33,2.33,0,0,0,202,138l.85.76a3.2,3.2,0,0,1-2.59,1.18A3.15,3.15,0,0,1,197,136.66Zm4.69-.47a1.65,1.65,0,0,0-1.61-1.67,1.71,1.71,0,0,0-1.64,1.67Z" transform="translate(-0.4 -1.1)"/><path class="cls-1" d="M204.34,138.15h1.59v1.65h-1.59Z" transform="translate(-0.4 -1.1)"/><path class="cls-1" d="M207.08,136.67v0a3.27,3.27,0,0,1,3.29-3.31,3.19,3.19,0,0,1,2.53,1.09l-.91,1a2.11,2.11,0,0,0-1.63-.79,1.91,1.91,0,0,0-1.83,2v0a1.91,1.91,0,0,0,1.89,2,2.18,2.18,0,0,0,1.64-.78l.88.87a3.32,3.32,0,0,1-5.86-2.09Z" transform="translate(-0.4 -1.1)"/><path class="cls-1" d="M213.86,138v0c0-1.36,1.06-2,2.61-2a5.15,5.15,0,0,1,1.7.26V136c0-.9-.55-1.38-1.57-1.38a4.41,4.41,0,0,0-1.81.4l-.38-1.14a5.4,5.4,0,0,1,2.38-.52,2.85,2.85,0,0,1,2.1.71,2.64,2.64,0,0,1,.69,2v3.75h-1.42V139a2.55,2.55,0,0,1-2.06.92A2,2,0,0,1,213.86,138Zm4.34-.46v-.43a4.18,4.18,0,0,0-1.44-.25c-.94,0-1.49.39-1.49,1v0c0,.61.54,1,1.24,1C217.47,138.88,218.2,138.33,218.2,137.52Z" transform="translate(-0.4 -1.1)"/><path class="cls-1" d="M140.8,153.06l.91-1.07a3.18,3.18,0,0,0,2.16,1,1.48,1.48,0,0,0,1.67-1.45v0c0-.86-.72-1.4-1.74-1.4a3.51,3.51,0,0,0-1.55.38l-.89-.59.24-4.12h5v1.31h-3.75l-.14,2a3.68,3.68,0,0,1,1.33-.24c1.64,0,2.93.86,2.93,2.64v0a2.82,2.82,0,0,1-3.12,2.84A4.29,4.29,0,0,1,140.8,153.06Z" transform="translate(-0.4 -1.1)"/><path class="cls-1" d="M149.85,147.24l-1.51.42-.32-1.2,2.27-.71h1v8.45h-1.46Z" transform="translate(-0.4 -1.1)"/><path class="cls-1" d="M157.41,152.32h-4.24l-.27-1.06,4.66-5.51h1.26v5.36H160v1.21h-1.2v1.88h-1.41Zm0-1.21v-3.33l-2.76,3.33Z" transform="translate(-0.4 -1.1)"/><path class="cls-1" d="M169.29,147.1h-4.23v-1.3H171v1.12l-3.77,7.28h-1.67Z" transform="translate(-0.4 -1.1)"/><path class="cls-1" d="M173.81,147.24l-1.51.42-.31-1.2,2.27-.71h1v8.45h-1.46Z" transform="translate(-0.4 -1.1)"/><path class="cls-1" d="M177,153l2.89-2.46c1.15-1,1.57-1.51,1.57-2.27a1.26,1.26,0,0,0-1.36-1.31c-.77,0-1.29.42-1.93,1.26l-1.05-.82a3.44,3.44,0,0,1,3.09-1.76,2.52,2.52,0,0,1,2.77,2.51v0c0,1.32-.69,2-2.18,3.25l-1.73,1.44h4v1.29H177Z" transform="translate(-0.4 -1.1)"/><path class="cls-1" d="M184.46,149.81H188v1.43h-3.55Z" transform="translate(-0.4 -1.1)"/><path class="cls-1" d="M189.36,150v0c0-2.4,1.47-4.34,3.67-4.34s3.65,1.92,3.65,4.32v0c0,2.4-1.46,4.34-3.67,4.34S189.36,152.42,189.36,150Zm5.8,0v0c0-1.65-.85-3-2.15-3s-2.12,1.32-2.12,3v0c0,1.66.84,3,2.14,3S195.16,151.67,195.16,150Z" transform="translate(-0.4 -1.1)"/><path class="cls-1" d="M197.76,152.87l1-1A2.72,2.72,0,0,0,201,153a1.31,1.31,0,0,0,1.45-1.27v0c0-.83-.75-1.3-1.93-1.3h-.68l-.24-.92,2.27-2.41h-3.64V145.8h5.55v1.11l-2.33,2.4c1.27.15,2.47.8,2.47,2.35v0a2.69,2.69,0,0,1-2.94,2.66A4,4,0,0,1,197.76,152.87Z" transform="translate(-0.4 -1.1)"/><path class="cls-1" d="M206.37,153.46a4.11,4.11,0,0,1-1-3.21v0c0-2.57,1.22-4.57,3.6-4.57a3.78,3.78,0,0,1,2.56.94l-.79,1.14a2.76,2.76,0,0,0-1.82-.74c-1.47,0-2,1.53-2,2.68a2.62,2.62,0,0,1,2-.85,2.65,2.65,0,0,1,2.92,2.64v0a2.9,2.9,0,0,1-3.11,2.85A3.12,3.12,0,0,1,206.37,153.46Zm4-1.91v0a1.73,1.73,0,0,0-3.42,0v0a1.57,1.57,0,0,0,1.74,1.5A1.52,1.52,0,0,0,210.35,151.55Z" transform="translate(-0.4 -1.1)"/><path class="cls-1" d="M214.24,153.46a4.11,4.11,0,0,1-1-3.21v0c0-2.57,1.22-4.57,3.6-4.57a3.78,3.78,0,0,1,2.56.94l-.79,1.14a2.74,2.74,0,0,0-1.82-.74c-1.46,0-2,1.53-2,2.68a2.6,2.6,0,0,1,2-.85,2.66,2.66,0,0,1,2.93,2.64v0a2.91,2.91,0,0,1-3.12,2.85A3.14,3.14,0,0,1,214.24,153.46Zm4-1.91v0a1.53,1.53,0,0,0-1.71-1.47,1.55,1.55,0,0,0-1.71,1.48v0a1.57,1.57,0,0,0,1.74,1.5A1.52,1.52,0,0,0,218.22,151.55Z" transform="translate(-0.4 -1.1)"/></g></g></svg>