<svg xmlns="http://www.w3.org/2000/svg" viewBox="0 0 116.83 199.79"><defs><style>.cls-1{font-size:26.53px;font-family:Gotham-Medium, Gotham;font-weight:500;}.cls-2{letter-spacing:-0.01em;}</style></defs><g id="Layer_2" data-name="Layer 2"><g id="Layer_2-2" data-name="Layer 2"><path d="M105.51,14.45c-6.42-3.79-11.87-8.91-17.77-13.4-1.35-1-2.23-1.76-3.57.09-1.09,1.5-1.31,2.56.26,3.71C88,7.45,92.27,10.36,96,13.45c-12.38,0-26-.66-37.25-1-4.92-.16-5.86,3-5.92,6.14-.83,41.9.13,83.35.15,125,.13,2.38-.79,6.32,2.7,6.38,2.1.07,3-1.09,3-3.06-1.14-46.06-.57-79.66-.87-123.46,0-4.49-.83-6,5.83-6,10.34,0,20.68.11,32.31.11-4.26,3.76-7.44,6.8-10.87,9.51-1.56,1.23-2.43,2.13-1,3.95,1.6,2.11,2.94,1.21,4.54-.1,5.58-4.57,10.39-9.45,16.93-13.45Z"/><text class="cls-1" transform="translate(0 192.5)">port<tspan class="cls-2" x="57.09" y="0">f</tspan><tspan x="66.8" y="0">olio</tspan></text></g></g></svg>