<svg xmlns="http://www.w3.org/2000/svg" viewBox="0 0 116.83 199.79"><defs><style>.cls-1{fill:#fee59a;}.cls-2{font-size:26.53px;fill:#ffe69a;font-family:Gotham-Medium, Gotham;font-weight:500;}.cls-3{letter-spacing:-0.01em;}</style></defs><g id="Layer_2" data-name="Layer 2"><g id="Layer_2-2" data-name="Layer 2"><path class="cls-1" d="M8.46,14.45c6.43-3.79,11.87-8.91,17.77-13.4,1.35-1,2.23-1.76,3.57.09,1.09,1.5,1.31,2.56-.26,3.71C26,7.45,21.71,10.36,18,13.45c12.38,0,26-.66,37.26-1,4.91-.16,5.86,3,5.92,6.14.82,41.9-.14,83.35-.16,125-.13,2.38.8,6.32-2.7,6.38-2.1.07-3-1.09-3-3.06,1.14-46.06.57-79.66.86-123.46,0-4.49.83-6-5.83-6-10.33,0-20.67.11-32.31.11,4.26,3.76,7.45,6.8,10.88,9.51,1.55,1.23,2.42,2.13,1,3.95-1.61,2.11-3,1.21-4.54-.1C19.82,26.33,15,21.45,8.46,17.45Z"/><text class="cls-2" transform="translate(0 192.5)">port<tspan class="cls-3" x="57.09" y="0">f</tspan><tspan x="66.8" y="0">olio</tspan></text></g></g></svg>